<?xml version="1.0" encoding="utf-8"?>
<!-- Generator: Adobe Illustrator 23.0.6, SVG Export Plug-In . SVG Version: 6.00 Build 0)  -->
<svg version="1.1" id="Calque_1" xmlns="http://www.w3.org/2000/svg" xmlns:xlink="http://www.w3.org/1999/xlink" x="0px" y="0px"
	 viewBox="0 0 50 50" style="enable-background:new 0 0 50 50;" xml:space="preserve">
<style type="text/css">
	.st0{fill:#FFA9D2;}
	.st1{fill:#F7F5F6;}
</style>
<g>
	<path class="st0" d="M26,1.8c0,0,6.8,0.3,9.1,9c2.3,8.7-5.2,11.7-5.2,11.7l0.1,22.7L26,49l-5-4.6l2.5-3l-2.8-2.8l2.5-2.8l-2.5-2.4
		l2.4-2.7L20,27.1v-4.4c0,0-5.4-4.4-5-10.1C15.4,7,19.1,1.6,26,1.8z"/>
	<path class="st1" d="M22.2,8.6c0,0-0.4-2.9,2.5-3.4c0,0,2.5-0.3,3.1,2s-1.5,3.4-1.5,3.4s-3.3,1.2-4.1-2.3"/>
</g>
</svg>
