<svg id="exj1otkppkth1" xmlns="http://www.w3.org/2000/svg" xmlns:xlink="http://www.w3.org/1999/xlink" viewBox="0 0 200 100" shape-rendering="geometricPrecision" text-rendering="geometricPrecision"><style><![CDATA[#exj1otkppkth2_to {animation: exj1otkppkth2_to__to 3000ms linear 1 normal forwards}@keyframes exj1otkppkth2_to__to { 0% {transform: translate(101.500000px,-19px)} 46.666667% {transform: translate(101.500000px,29px)} 100% {transform: translate(101.500000px,29px)} }#exj1otkppkth3_ts {animation: exj1otkppkth3_ts__ts 3000ms linear 1 normal forwards}@keyframes exj1otkppkth3_ts__ts { 0% {transform: translate(100.000004px,62.500000px) scale(1.410000,1)} 46.666667% {transform: translate(100.000004px,62.500000px) scale(1,1)} 100% {transform: translate(100.000004px,62.500000px) scale(1,1)} }#exj1otkppkth3 {animation: exj1otkppkth3_c_o 3000ms linear 1 normal forwards}@keyframes exj1otkppkth3_c_o { 0% {opacity: 0.120000} 6.666667% {opacity: 0.080000} 23.333333% {opacity: 0.240000} 30% {opacity: 0.520000} 36.666667% {opacity: 1} 100% {opacity: 1} }]]></style><g id="exj1otkppkth2_to" transform="translate(101.500000,-19)"><polygon id="exj1otkppkth2" points="61,42 100.100000,15.800000 142,42 100.800000,34" transform="translate(-101.500000,-28.900001)" fill="none" stroke="rgb(255,169,210)" stroke-width="2.496000" stroke-miterlimit="10"/></g><g id="exj1otkppkth3_ts" transform="translate(100.000004,62.500000) scale(1.410000,1)"><g id="exj1otkppkth3" transform="translate(-100.000004,-62.500000)" opacity="0.12"><g id="exj1otkppkth4"><g id="exj1otkppkth5"><path id="exj1otkppkth6" d="M43.500000,68.200000C42.600000,68.200000,41.800000,67.900000,41.100000,67.400000C40.400000,66.900000,40.100000,66.200000,40.100000,65.500000L40.100000,55.800000C40.100000,55,40.400000,54.400000,41.100000,53.900000C41.800000,53.400000,42.600000,53.100000,43.500000,53.100000L58.900000,53.100000L58.900000,55.400000L43.900000,55.400000C43.500000,55.400000,43.300000,55.500000,43.100000,55.600000C43,55.700000,42.900000,55.900000,42.900000,56.200000L42.900000,65.200000C42.900000,65.500000,43,65.700000,43.100000,65.800000C43.200000,65.900000,43.500000,66,43.900000,66L58.900000,66L58.900000,68.300000L43.500000,68.300000Z" fill="rgb(156,211,209)" stroke="none" stroke-width="1"/><path id="exj1otkppkth7" d="M61.500000,68.200000L61.500000,52L64.300000,52L64.300000,56L73.500000,56C74.400000,56,75.200000,56.300000,75.900000,56.800000C76.600000,57.300000,76.900000,58,76.900000,58.700000L76.900000,68.200000L74.100000,68.200000L74.100000,59C74.100000,58.700000,74,58.500000,73.900000,58.400000C73.800000,58.300000,73.500000,58.200000,73.100000,58.200000L65.200000,58.200000C64.800000,58.200000,64.600000,58.300000,64.400000,58.400000C64.300000,58.500000,64.200000,58.700000,64.200000,59L64.200000,68.100000L61.500000,68.100000Z" fill="rgb(156,211,209)" stroke="none" stroke-width="1"/><path id="exj1otkppkth8" d="M79,54.300000L79,52L81.800000,52L81.800000,54.300000L79,54.300000ZM79,68.200000L79,56L81.800000,56L81.800000,68.200000L79,68.200000Z" fill="rgb(156,211,209)" stroke="none" stroke-width="1"/><path id="exj1otkppkth9" d="M88,68.200000C87.100000,68.200000,86.300000,67.900000,85.600000,67.400000C84.900000,66.900000,84.600000,66.200000,84.600000,65.500000L84.600000,52L87.400000,52L87.400000,65.100000C87.400000,65.400000,87.500000,65.600000,87.600000,65.700000C87.700000,65.800000,88,65.900000,88.400000,65.900000L90.800000,65.900000L90.800000,68.200000L88,68.200000Z" fill="rgb(156,211,209)" stroke="none" stroke-width="1"/><path id="exj1otkppkth10" d="M95.500000,68.200000C94.600000,68.200000,93.800000,67.900000,93.100000,67.400000C92.400000,66.900000,92.100000,66.200000,92.100000,65.500000L92.100000,58.800000C92.100000,58,92.400000,57.400000,93.100000,56.900000C93.800000,56.400000,94.600000,56.100000,95.500000,56.100000L104.700000,56.100000L104.700000,52.100000L107.500000,52.100000L107.500000,68.300000L95.500000,68.300000ZM95.900000,65.900000L103.800000,65.900000C104.200000,65.900000,104.400000,65.800000,104.600000,65.700000C104.700000,65.600000,104.800000,65.400000,104.800000,65.100000L104.800000,59C104.800000,58.700000,104.700000,58.500000,104.600000,58.400000C104.500000,58.300000,104.200000,58.200000,103.800000,58.200000L95.900000,58.200000C95.500000,58.200000,95.300000,58.300000,95.100000,58.400000C95,58.500000,95,58.700000,95,59L95,65.100000C95,65.400000,95.100000,65.600000,95.200000,65.700000C95.300000,65.800000,95.500000,65.900000,95.900000,65.900000Z" fill="rgb(156,211,209)" stroke="none" stroke-width="1"/><path id="exj1otkppkth11" d="M121.400000,68.200000C120.500000,68.200000,119.700000,67.900000,119,67.400000C118.300000,66.900000,118,66.200000,118,65.500000L118,53L120.800000,53L120.800000,65.100000C120.800000,65.400000,120.900000,65.600000,121,65.700000C121.100000,65.800000,121.400000,65.900000,121.800000,65.900000L133,65.900000C133.400000,65.900000,133.700000,65.800000,133.800000,65.700000C133.900000,65.600000,134,65.400000,134,65.100000L134,53L136.900000,53L136.900000,65.400000C136.900000,66.200000,136.600000,66.800000,135.900000,67.300000C135.200000,67.800000,134.400000,68.100000,133.500000,68.100000L121.400000,68.100000Z" fill="rgb(156,211,209)" stroke="none" stroke-width="1"/><path id="exj1otkppkth12" d="M139.700000,73L139.700000,56L151.700000,56C152.600000,56,153.400000,56.300000,154.100000,56.800000C154.800000,57.300000,155.100000,58,155.100000,58.700000L155.100000,65.400000C155.100000,66.200000,154.800000,66.800000,154.100000,67.300000C153.400000,67.800000,152.600000,68.100000,151.700000,68.100000L142.500000,68.100000L142.500000,73L139.700000,73ZM143.400000,65.900000L151.300000,65.900000C151.700000,65.900000,151.900000,65.800000,152.100000,65.700000C152.200000,65.600000,152.300000,65.400000,152.300000,65.100000L152.300000,59C152.300000,58.700000,152.200000,58.500000,152.100000,58.400000C152,58.300000,151.700000,58.200000,151.300000,58.200000L143.400000,58.200000C143,58.200000,142.800000,58.300000,142.600000,58.400000C142.500000,58.500000,142.400000,58.700000,142.400000,59L142.400000,65.100000C142.400000,65.400000,142.500000,65.600000,142.600000,65.700000C142.800000,65.800000,143.100000,65.900000,143.400000,65.900000Z" fill="rgb(156,211,209)" stroke="none" stroke-width="1"/><path id="exj1otkppkth13" d="M157.100000,63.900000L157.100000,53L159.900000,53L159.900000,63.900000L157.100000,63.900000ZM157.100000,68.200000L157.100000,65.900000L159.900000,65.900000L159.900000,68.200000L157.100000,68.200000Z" fill="rgb(156,211,209)" stroke="none" stroke-width="1"/></g></g></g></g></svg>