<?xml version="1.0" encoding="utf-8"?>
<!-- Generator: Adobe Illustrator 23.0.6, SVG Export Plug-In . SVG Version: 6.00 Build 0)  -->
<svg version="1.1" id="Calque_1" xmlns="http://www.w3.org/2000/svg" xmlns:xlink="http://www.w3.org/1999/xlink" x="0px" y="0px"
	 viewBox="0 0 50 50" style="enable-background:new 0 0 50 50;" xml:space="preserve">
<style type="text/css">
	.st0{fill:#FFEB99;}
	.st1{fill:#FFA9D2;}
	.st2{fill:none;stroke:#FFA9D2;stroke-miterlimit:10;}
</style>
<path class="st0" d="M24.3,23.8c0,0,3.4,10.9-1.5,16.3c-4.4,4.8-9.7,5.4-11.2,3.2C10,41.2,5,48.5,5,48.5L6.4,41
	c0,0-6.1-4.3-4.8-11.1S8,16.1,16.1,18S24.3,23.8,24.3,23.8z"/>
<g id="XMLID_1_">
	<g>
		<path class="st1" d="M48.7,14.3c1.2,10-4.1,19.1-5.8,17.9c-1.7-1.2,0.1,10,0.1,10l-7.2-6.6c0,0-20.3,4.4-19.6-17.5
			C16.8-2.2,37.1,1.5,37.1,1.5S47.5,4.2,48.7,14.3z"/>
	</g>
	<g>
		<path class="st2" d="M37.1,1.5c0,0,10.4,2.7,11.6,12.8c1.2,10-4.1,19.1-5.8,17.9c-1.7-1.2,0.1,10,0.1,10l-7.2-6.6
			c0,0-20.3,4.4-19.6-17.5C16.8-2.2,37.1,1.5,37.1,1.5z"/>
	</g>
</g>
</svg>
