<?xml version="1.0" encoding="utf-8"?>
<!-- Generator: Adobe Illustrator 23.0.6, SVG Export Plug-In . SVG Version: 6.00 Build 0)  -->
<svg version="1.1" id="Calque_1" xmlns="http://www.w3.org/2000/svg" xmlns:xlink="http://www.w3.org/1999/xlink" x="0px" y="0px"
	 viewBox="0 0 50 80" style="enable-background:new 0 0 50 80;" xml:space="preserve">
<style type="text/css">
	.st0{fill:#FDD3BC;}
	.st1{fill:#B97227;}
	.st2{fill:#FCC9A8;}
	.st3{fill:#216D6D;}
	.st4{fill:none;stroke:#000000;stroke-width:0.3935;stroke-miterlimit:10;}
</style>
<g>
	<g>
		
			<image style="overflow:visible;opacity:0.75;" width="43" height="36" xlink:href="8E0717EC.png"  transform="matrix(1 0 0 1 5.0975 11.0975)">
		</image>
		<g>
			<path class="st0" d="M9.4,26.7c0,0-3.3,2.9,1,3.7c0,0,3.8,8.4,9.8,7.5c0,0,15.1,2.5,16.3-11.5c0,0,4.3-2.9,0.5-4.3
				c-2.6-1-0.8-1-0.8-1s-2.6-6.2-7.4-6.1c-4.8,0.1-13.5-1.8-16.2,4S9.4,26.7,9.4,26.7z"/>
		</g>
	</g>
	<path class="st1" d="M8.8,28.1c0,0-2.1-3.4-0.4-4.7c1.7-1.4-2.5-6.3,3.1-7.4s-1.2-4.8,6.7-5.5s5.7-3.2,8.6,0.7s4.8-4.8,6.3,2.7
		c1.5,7.6,9.2,2.9,5.9,11.8c0,0-4.8,1.7-5.3-2.1c0,0-3.9,1.7-4.1-0.9c-0.2-2.6-1.3,2.6-5.6,0.1s-6.7,0.1-6.7-2.9s0.5,2.8-2.5,3.5
		c-3,0.7,0.3,5.3-2.5,5S8.8,28.1,8.8,28.1z"/>
	<g>
		
			<image style="overflow:visible;opacity:0.75;" width="28" height="25" xlink:href="8E0717EB.png"  transform="matrix(1 0 0 1 31.0975 26.0975)">
		</image>
		<g>
			<path class="st2" d="M34.8,38.9c0,0,10.5-3.4,11.1-5.6c0.5-2.2,3.4-4.8,3.5-2.2c0.1,2.6-1.6,4.9-1.6,4.9s-12.5,6.4-12.6,5.4
				C35.2,40.5,34.8,38.9,34.8,38.9z"/>
		</g>
	</g>
	<g>
		
			<image style="overflow:visible;opacity:0.75;" width="23" height="25" xlink:href="8E0717F6.png"  transform="matrix(1 0 0 1 -1.9025 26.0975)">
		</image>
		<g>
			<path class="st2" d="M12,39.5c0,0-7-2.6-8.1-5.4s-2-6.4-2.2-4.2S1.4,35,2.3,35.7c0.9,0.7,4.4,6.2,9.7,5.8V39.5z"/>
		</g>
	</g>
	<g>
		
			<image style="overflow:visible;opacity:0.75;" width="24" height="26" xlink:href="8E0717F9.png"  transform="matrix(1 0 0 1 24.0975 55.0975)">
		</image>
		<g>
			<path class="st2" d="M28,59.9c0,0,4.2,6.3,6.4,8.9c2.2,2.6,2.4,3.7,3.9,1.5c1.4-2.2-5.1-11.4-5.1-11.4L28,59.9z"/>
		</g>
	</g>
	<g>
		
			<image style="overflow:visible;opacity:0.75;" width="24" height="27" xlink:href="8E0717FA.png"  transform="matrix(1 0 0 1 2.0975 55.0975)">
		</image>
		<g>
			<path class="st2" d="M11.7,58.9c0,0-6.5,8.3-6.4,10.6c0.1,2.3,0.9,4.8,3,2.6s8.1-11.7,8.1-11.7L11.7,58.9z"/>
		</g>
	</g>
	<g>
		
			<image style="overflow:visible;opacity:0.75;" width="35" height="26" xlink:href="8E0717FB.png"  transform="matrix(1 0 0 1 8.0975 46.0975)">
		</image>
		<g>
			<path class="st3" d="M14.6,49.7c0,0-0.6,5.5-3.2,8.6c0,0,3.6,3.8,6.1,4.4c0,0,3.2-5.2,3.8-5.7c0.7-0.5,3.5,3.8,5,4.6
				c1.4,0.8,7.1-1.6,7.8-2.3l-3.4-8L14.6,49.7z"/>
		</g>
	</g>
	<path class="st0" d="M19.9,38.2c0,0,0,1.5-1.2,1.5c-1.2,0-3.7,0.7,0,1.4c3.7,0.7,7.5,0.3,8.6,0c1.2-0.3-1.6-3.3-1.6-3.3L19.9,38.2z
		"/>
	<g>
		
			<image style="overflow:visible;opacity:0.75;" width="37" height="27" xlink:href="8E0717FD.png"  transform="matrix(1 0 0 1 8.0975 34.0975)">
		</image>
		<g>
			<path class="st1" d="M20.1,39.1c0,0,2.6,3,5.9,0c0,0,7.7,0.3,9-1.4l0.4,5.9L28.6,43c0,0,2.3,7.3,3.1,8.4c0.8,1.1-18.1,0.6-18-1.8
				s3.5-6.6,4-6.9c0.4-0.3-6,0-6,0l-0.1-4c0,0,4.8,1.2,5.8,1.1S20.1,39.1,20.1,39.1z"/>
		</g>
	</g>
	<path class="st4" d="M16.4,26.5c0,0,2.4,3.9,4.2,0"/>
	<path class="st4" d="M25.9,26.5c0,0,2.4,3.9,4.2,0"/>
	<path class="st4" d="M18.5,32.4c0,0,2.9,7.3,9.6,0.7"/>
</g>
</svg>
