<?xml version="1.0" encoding="utf-8"?>
<!-- Generator: Adobe Illustrator 23.0.6, SVG Export Plug-In . SVG Version: 6.00 Build 0)  -->
<svg version="1.1" id="Calque_1" xmlns="http://www.w3.org/2000/svg" xmlns:xlink="http://www.w3.org/1999/xlink" x="0px" y="0px"
	 viewBox="0 0 90 90" style="enable-background:new 0 0 90 90;" xml:space="preserve">
<style type="text/css">
	.st0{display:none;}
	.st1{display:inline;fill:#EECB00;}
	.st2{fill:#EFD96C;}
	.st3{opacity:0.2;}
	.st4{display:inline;}
	.st5{fill:#EECB00;}
</style>
<g class="st0">
	<polygon class="st1" points="45.5,16.5 56.5,16.5 48.5,36.5 60.5,36.5 33.5,73.5 45.5,45.5 33.5,45.5 	"/>
</g>
<g id="Calque_3">
	<g>
		<g id="图层_3_1_">
			<path class="st2" d="M58,16.7c-10.2,0-14,13.4-14,13.4s-3.7-13.4-14-13.4c-7.8,0-16.6,6.7-13.3,22C19.9,54,43.9,73,43.9,73
				l0.1-0.1c0,0.1,0.1,0.1,0.1,0.1s24-19,27.2-34.3C74.6,23.4,65.7,16.7,58,16.7z"/>
			<g class="st3">
				<path class="st2" d="M58,18.2c3.9,0,7.7,1.9,9.9,5c2.7,3.7,3.3,8.9,2,15.1c-2.8,13.1-22,29.5-26,32.8c-4-3.3-23.2-19.7-26-32.8
					c-1.3-6.2-0.6-11.5,2-15.1c2.3-3.2,6-5,10-5c9.1,0,12.7,12.2,12.7,12.3l1.3,4.8l1.4-4.8C45.4,30.4,48.9,18.2,58,18.2 M58,16.7
					c-10.2,0-14,13.4-14,13.4s-3.7-13.4-14-13.4c-7.8,0-16.6,6.7-13.3,22C19.9,54,43.9,73,43.9,73l0.1-0.1c0,0.1,0.1,0.1,0.1,0.1
					s24-19,27.2-34.3C74.6,23.4,65.7,16.7,58,16.7L58,16.7z"/>
			</g>
		</g>
	</g>
</g>
<g id="Calque_4" class="st0">
	<g class="st4">
		<g>
			<path class="st5" d="M39.5,68.6c2.9,0,5.8,0,8.8,0c0.4,0,0.8,0,1.2,0c1.4,0,1.5-2.3,0-2.3c-2.9,0-5.8,0-8.8,0c-0.4,0-0.8,0-1.2,0
				C38.1,66.4,38,68.6,39.5,68.6L39.5,68.6z"/>
		</g>
	</g>
	<g class="st4">
		<g>
			<path class="st5" d="M41.5,73.6c1.8,0,3.5,0,5.3,0c0.2,0,0.5,0,0.7,0c0.6,0,1.2-0.5,1.1-1.1c0-0.6-0.5-1.1-1.1-1.1
				c-1.8,0-3.5,0-5.3,0c-0.2,0-0.5,0-0.7,0c-0.6,0-1.2,0.5-1.1,1.1C40.4,73.1,40.9,73.6,41.5,73.6L41.5,73.6z"/>
		</g>
	</g>
	<g class="st4">
		<g>
			<path class="st5" d="M21.5,40.3c1.5,0,2.9,0,4.4,0c0.2,0,0.4,0,0.6,0c0.4,0,0.8-0.3,0.8-0.8c0-0.4-0.3-0.8-0.8-0.8
				c-1.5,0-2.9,0-4.4,0c-0.2,0-0.4,0-0.6,0c-0.4,0-0.8,0.3-0.8,0.8C20.8,39.9,21.1,40.3,21.5,40.3L21.5,40.3z"/>
		</g>
	</g>
	<g class="st4">
		<g>
			<path class="st5" d="M27,22c1.2,1.2,2.3,2.3,3.5,3.5c0.2,0.2,0.3,0.3,0.5,0.5c0.3,0.3,0.8,0.3,1.1,0s0.3-0.8,0-1.1
				c-1.2-1.2-2.3-2.3-3.5-3.5c-0.2-0.2-0.3-0.3-0.5-0.5c-0.3-0.3-0.8-0.3-1.1,0C26.7,21.3,26.7,21.7,27,22L27,22z"/>
		</g>
	</g>
	<g class="st4">
		<g>
			<path class="st5" d="M43.8,14c0,1.8,0,3.5,0,5.3c0,0.2,0,0.5,0,0.7c0,1,1.5,1,1.5,0c0-1.8,0-3.5,0-5.3c0-0.2,0-0.5,0-0.7
				C45.3,13,43.8,13,43.8,14L43.8,14z"/>
		</g>
	</g>
	<g class="st4">
		<g>
			<path class="st5" d="M61,21c-1.2,1.2-2.3,2.3-3.5,3.5c-0.2,0.2-0.3,0.3-0.5,0.5c-0.3,0.3-0.3,0.8,0,1.1c0.3,0.3,0.8,0.3,1.1,0
				c1.2-1.2,2.3-2.3,3.5-3.5c0.2-0.2,0.3-0.3,0.5-0.5c0.3-0.3,0.3-0.8,0-1.1C61.7,20.7,61.3,20.7,61,21L61,21z"/>
		</g>
	</g>
	<g class="st4">
		<g>
			<path class="st5" d="M67.5,38.8c-1.5,0-2.9,0-4.4,0c-0.2,0-0.4,0-0.6,0c-0.4,0-0.8,0.3-0.8,0.8c0,0.4,0.3,0.8,0.8,0.8
				c1.5,0,2.9,0,4.4,0c0.2,0,0.4,0,0.6,0c0.4,0,0.8-0.3,0.8-0.8C68.2,39.1,67.9,38.8,67.5,38.8L67.5,38.8z"/>
		</g>
	</g>
	<g class="st4">
		<g>
			<path class="st5" d="M56,40c-0.1,3-2.4,5.7-4,8.1c-2.2,3.2-3.1,6.9-3.9,10.6c-0.2,0.7-0.3,1.5-0.5,2.2c-0.1,0.3-0.2,0.6-0.2,0.9
				c0,0.1-0.1,0.3-0.1,0.4c0.1-0.3,0.5-0.2,0.2-0.2c-0.6-0.1-1.3,0-1.9,0c-1,0-2,0-3,0c-0.2,0-0.5,0.1-0.7,0
				c0.2,0.1,0.1,0.1,0.1-0.2s-0.1-0.8-0.2-1.1c-0.7-3.2-2.2-6.4-3.6-9.3c-0.8-1.7-1.8-3.3-2.8-4.9c-1-1.6-2-3.2-2.3-5.1
				c-1-6,4-11.4,9.7-12.2C49.5,28.1,55.9,33.2,56,40c0,1.9,3,1.9,3,0c-0.1-7.3-5.9-13.2-13.1-13.9c-7-0.7-14.1,4-15.6,11
				c-0.9,4.2,0.5,7.9,2.8,11.4S37.3,56,38.5,60c0.5,1.5,0.3,3.7,1.8,4.6c0.9,0.5,1.9,0.4,2.9,0.4c1.1,0,2.3,0,3.4,0c1,0,2,0,2.7-0.7
				c0.6-0.6,0.8-1.6,1-2.4c0.2-1.1,0.5-2.3,0.8-3.4c0.6-2.4,1.2-4.8,2.3-7c2-3.7,5.4-6.9,5.5-11.4C59.1,38.1,56.1,38.1,56,40z"/>
		</g>
	</g>
</g>
</svg>
