<?xml version="1.0" encoding="utf-8"?>
<!-- Generator: Adobe Illustrator 23.0.6, SVG Export Plug-In . SVG Version: 6.00 Build 0)  -->
<svg version="1.1" id="Calque_1" xmlns="http://www.w3.org/2000/svg" xmlns:xlink="http://www.w3.org/1999/xlink" x="0px" y="0px"
	 viewBox="0 0 30 30" style="enable-background:new 0 0 30 30;" xml:space="preserve">
<style type="text/css">
	.st0{fill:#FFEB99;}
	.st1{fill:#FFFFFF;}
</style>
<path class="st0" d="M1.2,26.6c0-8,0-16,0-24c0-0.1,0-0.1,0-0.2c0.1-0.6,0.6-1.1,1.2-1.2c0.1,0,0.1,0,0.2,0c8,0,16,0,24,0
	c0.1,0,0.1,0,0.2,0c0.6,0.1,1.1,0.6,1.2,1.2c0,0.1,0,0.1,0,0.2c0,8,0,16,0,24c0,0,0,0.1,0,0.1c-0.1,0.6-0.6,1.1-1.2,1.2
	c0,0-0.1,0-0.1,0c-2.3,0-4.6,0-6.9,0c0-0.1,0-0.2,0-0.2c0-3.3,0-6.6,0-10c0-0.1,0-0.1,0-0.2c0.1,0,0.1,0,0.1,0c1,0,2.1,0,3.1,0
	c0.2,0,0.2,0,0.2-0.2c0.1-0.6,0.1-1.1,0.2-1.7c0.1-0.7,0.2-1.3,0.3-2c0-0.2,0-0.2-0.1-0.2c-1.2,0-2.5,0-3.7,0c0,0-0.1,0-0.1,0
	c0,0,0-0.1,0-0.1c0-0.9,0-1.7,0-2.6c0-0.2,0-0.5,0.1-0.7c0.1-0.6,0.5-0.9,1-1.1c0.3-0.1,0.6-0.1,0.9-0.1c0.7,0,1.3,0,2,0
	c0.1,0,0.1,0,0.1-0.1c0-0.6,0-1.2,0-1.8c0-0.5,0-1,0-1.6c0-0.1,0-0.1-0.1-0.1c-0.2,0-0.3,0-0.5,0c-0.9,0-1.8-0.1-2.6-0.1
	c-0.8,0-1.5,0.1-2.2,0.4c-1.1,0.4-1.8,1.2-2.3,2.2c-0.4,0.8-0.5,1.6-0.5,2.4c0,1,0,2.1,0,3.1c0,0,0,0.1,0,0.1c-0.1,0-0.1,0-0.2,0
	c-1.1,0-2.1,0-3.2,0c-0.1,0-0.1,0-0.1,0.1c0,1.3,0,2.5,0,3.8c0,0.1,0,0.1,0.1,0.1c1.1,0,2.1,0,3.2,0c0,0,0.1,0,0.1,0
	c0,0,0,0.1,0,0.1c0,3.4,0,6.7,0,10.1c0,0.1,0,0.1,0,0.2c-4.3,0-8.6,0-12.9,0c0,0-0.1,0-0.1,0c-0.6-0.1-1.1-0.6-1.2-1.2
	C1.3,26.7,1.2,26.6,1.2,26.6z"/>
<path class="st1" d="M15.5,28c0-0.1,0-0.1,0-0.2c0-3.4,0-6.7,0-10.1c0,0,0-0.1,0-0.1c-0.1,0-0.1,0-0.1,0c-1.1,0-2.1,0-3.2,0
	c-0.1,0-0.1,0-0.1-0.1c0-1.3,0-2.5,0-3.8c0-0.1,0-0.1,0.1-0.1c1.1,0,2.1,0,3.2,0c0,0,0.1,0,0.2,0c0,0,0-0.1,0-0.1c0-1,0-2.1,0-3.1
	c0-0.8,0.2-1.7,0.5-2.4c0.5-1,1.3-1.8,2.3-2.2c0.7-0.3,1.5-0.4,2.2-0.4c0.9,0,1.8,0.1,2.6,0.1c0.2,0,0.3,0,0.5,0
	c0.1,0,0.1,0,0.1,0.1c0,0.5,0,1,0,1.6c0,0.6,0,1.2,0,1.8c0,0.1,0,0.1-0.1,0.1c-0.7,0-1.3,0-2,0c-0.3,0-0.6,0-0.9,0.1
	c-0.6,0.1-0.9,0.5-1,1.1c0,0.2-0.1,0.5-0.1,0.7c0,0.9,0,1.7,0,2.6c0,0,0,0.1,0,0.1c0.1,0,0.1,0,0.1,0c1.2,0,2.5,0,3.7,0
	c0.2,0,0.2,0,0.1,0.2c-0.1,0.7-0.2,1.3-0.3,2c-0.1,0.6-0.1,1.1-0.2,1.7c0,0.2,0,0.2-0.2,0.2c-1,0-2.1,0-3.1,0c0,0-0.1,0-0.1,0
	c0,0.1,0,0.1,0,0.2c0,3.3,0,6.6,0,10c0,0.1,0,0.2,0,0.2C18.3,28,16.9,28,15.5,28z"/>
</svg>
