<?xml version="1.0" encoding="utf-8"?>
<!-- Generator: Adobe Illustrator 23.0.6, SVG Export Plug-In . SVG Version: 6.00 Build 0)  -->
<svg version="1.1" xmlns="http://www.w3.org/2000/svg" xmlns:xlink="http://www.w3.org/1999/xlink" x="0px" y="0px"
	 viewBox="0 0 30 30" style="enable-background:new 0 0 30 30;" xml:space="preserve">
<style type="text/css">
	.st0{display:none;}
	.st1{display:inline;}
	.st2{fill:#FFA9D2;}
	.st3{fill:#FFEB99;}
	.st4{fill:#FCFCFA;}
	.st5{fill:#BAE8E7;}
	.st6{fill:#EEFF71;}
	.st7{fill:none;stroke:#FFA9D2;stroke-width:1.0013;stroke-miterlimit:10;}
</style>
<g id="Calque_1" class="st0">
	<g class="st1">
		<g>
			<rect x="6" y="14" class="st2" width="18" height="14"/>
		</g>
		<g>
			<polygon class="st3" points="15,0 4,15 26,15 			"/>
		</g>
		<polygon class="st3" points="12,21 12,28 16,28 16,21 		"/>
		<polyline class="st4" points="12.8,21.8 12.8,24.1 15.2,24.1 15.2,21.8 12.8,21.8 		"/>
		<polyline class="st4" points="12.8,27.2 12.8,24.9 15.2,24.9 15.2,27.2 12.8,27.2 		"/>
		<rect x="7" y="16" class="st5" width="4" height="4"/>
		<rect x="18" y="16" class="st5" width="4" height="4"/>
		<path class="st3" d="M9,16c0,0-1,3-2,2l1,2H7v-4H9z"/>
		<path class="st3" d="M20,16c0,0-1,3-2,2l1,2h-1v-4H20z"/>
		<path class="st3" d="M9.1,16c0,0,0.9,3,1.9,2l-1,2h1v-4H9.1z"/>
		<path class="st3" d="M20.1,16c0,0,0.9,3,1.9,2l-1,2h1v-4H20.1z"/>
	</g>
</g>
<g id="Calque_2">
	<path class="st6" d="M18.1,29.5h-6.4c-3.6,0-6.6-3-6.6-6.6v-9.4c0-3.6,3-6.6,6.6-6.6h6.4c3.6,0,6.6,3,6.6,6.6v9.4
		C24.7,26.6,21.7,29.5,18.1,29.5z"/>
	<g id="XMLID_1_">
		<g>
			<polygon class="st2" points="14.3,0.8 27.2,14.4 14.5,10.2 2.3,14.4 			"/>
		</g>
		<g>
			<polygon class="st7" points="2.3,14.4 14.3,0.8 27.2,14.4 14.5,10.2 			"/>
		</g>
	</g>
	<rect x="11.7" y="18.2" class="st2" width="6.9" height="11.3"/>
</g>
</svg>
