<?xml version="1.0" encoding="utf-8"?>
<!-- Generator: Adobe Illustrator 23.0.6, SVG Export Plug-In . SVG Version: 6.00 Build 0)  -->
<svg version="1.1" id="Calque_1" xmlns="http://www.w3.org/2000/svg" xmlns:xlink="http://www.w3.org/1999/xlink" x="0px" y="0px"
	 viewBox="0 0 30 30" style="enable-background:new 0 0 30 30;" xml:space="preserve">
<style type="text/css">
	.st0{fill:#FFA9D2;stroke:#FFFFFF;stroke-width:2;stroke-miterlimit:10;}
	.st1{fill:#FFA9D2;stroke:#FCD9ED;stroke-width:2;stroke-miterlimit:10;}
	.st2{fill:#FFFDFE;stroke:#FFA9D2;stroke-miterlimit:10;}
	.st3{fill:#FFFFFF;stroke:#FFA9D2;stroke-miterlimit:10;}
</style>
<g>
	<path class="st0" d="M29,22.8c0,3.2-2.7,5.8-6,5.8H7.4c-3.3,0-6-2.6-6-5.8v-15c0-3.2,2.7-5.8,6-5.8H23c3.3,0,6,2.6,6,5.8V22.8z"/>
</g>
<path class="st1" d="M15.9,25.2h-1.5c-5.1,0-9.3-4.2-9.3-9.3v-2c0-5.1,4.2-9.3,9.3-9.3h1.5c5.1,0,9.3,4.2,9.3,9.3v2
	C25.2,21,21,25.2,15.9,25.2z M19.4,23.7c1.1,0,2.2-0.4,3-1.3s1.3-1.9,1.3-3v-8.9c0-1.1-0.4-2.2-1.3-3s-1.9-1.3-3-1.3H11
	c-1.1,0-2.2,0.4-3,1.3s-1.3,1.9-1.3,3v8.9c0,1.1,0.4,2.2,1.3,3s1.9,1.3,3,1.3H19.4z"/>
<path class="st2" d="M20.7,14.8c0,3-2.5,5.5-5.5,5.5s-5.5-2.5-5.5-5.5s2.5-5.5,5.5-5.5S20.7,11.8,20.7,14.8z M15.2,11.2
	c-2,0-3.6,1.6-3.6,3.6s1.6,3.6,3.6,3.6s3.6-1.6,3.6-3.6S17.2,11.2,15.2,11.2z"/>
<circle class="st3" cx="20.8" cy="9.2" r="1.3"/>
</svg>
