<?xml version="1.0" encoding="utf-8"?>
<!-- Generator: Adobe Illustrator 23.0.6, SVG Export Plug-In . SVG Version: 6.00 Build 0)  -->
<svg version="1.1" id="Calque_1" xmlns="http://www.w3.org/2000/svg" xmlns:xlink="http://www.w3.org/1999/xlink" x="0px" y="0px"
	 viewBox="0 0 30 30" style="enable-background:new 0 0 30 30;" xml:space="preserve">
<style type="text/css">
	.st0{fill:#FFA9D2;}
	.st1{fill:#FFA9D2;stroke:#000000;stroke-width:3.019199e-02;stroke-miterlimit:10;}
	.st2{fill:none;stroke:#000000;stroke-width:6.038398e-02;stroke-miterlimit:10;}
	.st3{fill:#FCFCFC;stroke:#000000;stroke-width:6.727672e-02;stroke-miterlimit:10;}
	.st4{fill:#FFEB99;}
	.st5{fill:#FFEB99;stroke:#000000;stroke-width:2.970756e-02;stroke-miterlimit:10;}
	.st6{fill:none;stroke:#000000;stroke-width:5.941511e-02;stroke-miterlimit:10;}
	.st7{fill:#BAE8E7;}
	.st8{fill:#BAE8E7;stroke:#000000;stroke-width:3.190429e-02;stroke-miterlimit:10;}
	.st9{fill:none;stroke:#000000;stroke-width:6.380858e-02;stroke-miterlimit:10;}
	.st10{fill:#FCFCFC;stroke:#000000;stroke-width:5.000000e-02;stroke-miterlimit:10;}
	.st11{fill:#FCFCFC;stroke:#000000;stroke-width:4.456594e-02;stroke-miterlimit:10;}
</style>
<g>
	<g>
		<ellipse class="st0" cx="22.2" cy="9.6" rx="8" ry="9.6"/>
		<path d="M22.2,0c4.5,0,8,4.3,8,9.6s-3.6,9.6-8,9.6s-8-4.3-8-9.6S17.7,0,22.2,0 M22.2,0c-4.5,0-8,4.3-8,9.6s3.6,9.6,8,9.6
			s8-4.3,8-9.6S26.6,0,22.2,0L22.2,0z"/>
	</g>
	<path class="st1" d="M20.9,19l-1.4,1.4c0,0,0-1.3,1.8,0c1.8,1.3,3.6,0,3.6,0l-2.1-1.3L20.9,19z"/>
	<path class="st2" d="M19.3,35.5c0,1.2,2-2.3,2-2.3s2-3.5,2.9-5.9s-0.9-2.3-0.9-2.3s-2,0-2-1.2s2.9-2.3,3.9-3.5c1.1-1.2-3-1.3-3-1.3
		h-0.9c0,0-0.5,0-0.5-0.1"/>
	<path class="st3" d="M26.5,3.8c0.2-0.3-1.2-0.5-1.6-1.2c-0.2-0.3,1.2-0.3,1.6,0C26.8,2.9,26.5,3.8,26.5,3.8"/>
</g>
<g>
	<g>
		<ellipse class="st4" cx="7.9" cy="10.5" rx="7.9" ry="9.5"/>
		<path d="M7.9,1c4.4,0,7.9,4.3,7.9,9.5s-3.5,9.5-7.9,9.5S0,15.6,0,10.5S3.5,1,7.9,1 M7.9,1C3.5,1,0,5.3,0,10.5s3.5,9.5,7.9,9.5
			s7.9-4.3,7.9-9.5S12.2,1,7.9,1L7.9,1z"/>
	</g>
	<path class="st5" d="M6.6,19.8l-1.4,1.4c0,0,0-1.3,1.7,0c1.7,1.3,3.5,0,3.5,0l-2.1-1.3L6.6,19.8z"/>
	<path class="st6" d="M8.7,19.9H7.3c0,0-5.9,0-4.4,1.1s5.8,2.3,5.8,3.5s-3,1.1-3,1.1s-3,0-1.4,2.3s4.4,5.8,4.4,5.8s3,3.4,3,2.3"/>
</g>
<g>
	<g>
		<ellipse class="st7" cx="15" cy="13.8" rx="8.5" ry="10.1"/>
		<path d="M15,3.7c4.7,0,8.5,4.6,8.5,10.1S19.7,23.9,15,23.9s-8.5-4.6-8.5-10.1S10.2,3.7,15,3.7 M15,3.7c-4.7,0-8.5,4.6-8.5,10.1
			s3.8,10.1,8.5,10.1s8.5-4.6,8.5-10.1S19.7,3.7,15,3.7L15,3.7z"/>
	</g>
	<path class="st8" d="M13.6,23.8l-1.5,1.5c0,0,0-1.3,1.9,0c1.9,1.3,3.8,0,3.8,0l-2.3-1.3L13.6,23.8z"/>
	<path class="st9" d="M15.9,23.9h-1.5c0,0-6.4,0-4.7,1.2c1.7,1.2,6.4,2.4,6.4,3.6S12.9,30,12.9,30s-3.2,0-1.5,2.4
		c1.7,2.4,4.5,6.3,4.5,6.3s3.2,3.6,3.2,2.4"/>
</g>
<path class="st10" d="M16.7,7.6c-0.2-0.3-1.2-0.1-1.3-0.5c-0.1-0.2,0.7-0.5,0.9-0.4C16.5,6.8,16.7,7.6,16.7,7.6"/>
<path class="st11" d="M10.9,3.7C11,3.5,10.2,3.3,10,2.8c-0.1-0.2,0.7-0.2,0.9,0C11,3,10.9,3.7,10.9,3.7"/>
</svg>
