<?xml version="1.0" encoding="utf-8"?>
<!-- Generator: Adobe Illustrator 23.0.6, SVG Export Plug-In . SVG Version: 6.00 Build 0)  -->
<svg version="1.1" id="Calque_1" xmlns="http://www.w3.org/2000/svg" xmlns:xlink="http://www.w3.org/1999/xlink" x="0px" y="0px"
	 viewBox="0 0 1280 1024" style="enable-background:new 0 0 1280 1024;" xml:space="preserve">
<style type="text/css">
	.st0{fill:#FFFFFF;stroke:#000000;stroke-width:7;stroke-miterlimit:10;}
	.st1{fill:#FFEB99;}
	.st2{fill:none;stroke:#FFEB99;stroke-width:17.1295;stroke-miterlimit:10;}
	.st3{fill:#AFA1A1;}
	.st4{fill:#FFA9D2;}
	.st5{fill:#FCC9A8;}
	.st6{fill:#020101;}
	.st7{fill:#070606;}
	.st8{fill:#B97227;}
	.st9{fill:none;stroke:#2A0000;stroke-width:1.7471;stroke-miterlimit:10;}
	.st10{fill:#FDD3BC;}
	.st11{fill:#216D6D;}
	.st12{fill:none;stroke:#000000;stroke-width:1.8151;stroke-miterlimit:10;}
	.st13{fill:none;stroke:#FFA9D2;stroke-width:7.9937;stroke-miterlimit:10;}
	.st14{fill:none;stroke:#FFEB99;stroke-width:1.142;stroke-miterlimit:10;}
</style>
<rect class="st0" width="1280" height="1024"/>
<g>
	<g>
		<path class="st1" d="M192.8,690c11.2,7.8,23.3,14.5,36.3,20c13,5.5,26.9,9.8,41.8,12.9c3.6,0.7,5.4,2.5,5.4,5.3
			c0,3.9-2.7,5.9-8,5.9c-12.2,0-29.4-5.5-51.5-16.4c-18.4-9.1-39.5-23.2-63.2-42.3v7.3l0.2,30.2v17.3H47.2v-8l0.4-58l0.5-69.4
			l-0.4-107.4h70.3c31.5,0,55.2,0.9,71.3,2.7c16.1,1.8,29.8,5.1,41.1,10c18.4,7.8,33,20.7,43.7,38.6c9.9,16.6,14.9,34,14.9,52.3
			c0,19.4-5.5,37.8-16.6,55C254.5,673.6,228,688.3,192.8,690z M176.2,679l8.4,0.2c24,0,44.2-6.8,60.8-20.5
			c10.5-8.5,18.5-19.2,24.1-32c5.2-11.7,7.9-23.7,7.9-35.9c0-20.7-6.6-39.3-19.9-55.7c-10.1-12.7-22.8-21.6-38.1-26.9
			c-15.3-5.2-36.7-8-64.4-8.4l-1.6,119.2v32.2l0.2,8.4C160.6,666.6,168.2,673,176.2,679z"/>
		<path class="st2" d="M428.1,487.5v12.4l-1.1,97.5l1.1,132.9H321l1-145.3l-1.2-88.7l0.2-8.7H428.1z"/>
		<path class="st1" d="M466.4,689c2.1,0,4.5,1.6,7.3,4.8c8.7,9.7,19.4,17.5,32.1,23.4c12.7,5.9,25.2,8.8,37.5,8.8
			c13.6,0,20.5-4.2,20.5-12.6c0-5.3-2.4-11.4-7.2-18.1c-4.8-6.7-16.2-19.9-34.3-39.7c-22.7-25-37.9-43.6-45.5-55.7
			c-10-16-15-31.2-15-45.7c0-21.8,9.6-39.7,28.7-53.5c18.8-13.6,41.9-20.5,69.4-20.5c19.2,0,36.9,4,53,11.9
			c6.1,3.1,11.3,6.6,15.7,10.7c4.4,4,6.6,7.4,6.6,10.1c0,1.3-0.6,2.5-1.8,3.6c-1.2,1.1-2.5,1.7-3.8,1.7c-2,0-4.9-1.8-8.7-5.5
			c-6.3-6-14.6-11.1-24.8-15c-10.3-4-20.1-6-29.6-6c-5.8,0-10.6,1.3-14.3,3.8c-3.7,2.6-5.5,5.8-5.5,9.9c0,4.9,2.3,10.8,6.8,17.8
			c4.5,7,12.2,16.3,23.1,27.9c34.3,37.1,55.3,62.1,63,75c8,13.6,12.1,26.8,12.1,39.5c0,10.8-2.9,21-8.6,30.6
			c-5.7,9.6-13.6,17.5-23.8,23.7c-19.4,11.7-43,17.6-70.8,17.6c-25.7,0-48.2-6.8-67.7-20.3c-13.6-9.5-20.5-16.9-20.5-22.2
			c0-1.5,0.6-2.9,1.8-4.2S464.8,689,466.4,689z"/>
		<path class="st1" d="M788.9,565.4c-0.2,5.5-0.4,12.1-0.4,19.9V596l1.2,122.7l59.3-0.6l42-0.5c6.9,0,10.3,2.1,10.3,6.3
			c0,3.5-1.7,5.5-5.2,6c-0.8,0.1-5.7,0.2-14.5,0.4H682.9l0.2-9.2l0.2-59.4l0.7-63.7l-1.4-110.4H868c8.3,0,13,0.2,14.2,0.5
			c2.7,0.7,4,2.7,4,6c0,4.1-2.6,6.1-7.7,6.1h-1.2l-87.6-1.1l-0.7,55.1l19.1,0.2l61.2-1.1l13.5-0.2c4.9,0,8.1,0.4,9.7,1.3
			c1.6,0.8,2.4,2.5,2.4,5c0,4.7-3.8,7-11.5,7l-13.8-0.4L788.9,565.4z"/>
	</g>
	<g>
		<path class="st3" d="M779,898.6c-0.4,2.9-0.7,6.3-0.9,10.2c-4.8,2.1-9.3,3.6-13.6,4.4c-4.2,0.9-8,1.3-11.4,1.3
			c-6.9,0-13.5-1.9-19.7-5.7c-6.2-3.9-11.5-9.6-16-17.3c-4.5-7.7-7.8-16.8-9.9-27.3c-2.1-10.5-3.2-21.6-3.2-33.3
			c0-13,1.1-25.5,3.5-37.7c2.4-12.1,5.9-22.2,10.6-30.3c4.7-8,10.3-14,16.8-17.9c6.5-3.9,13.5-5.9,20.9-5.9c2.5,0,5.2,0.2,8.1,0.6
			s5.3,0.8,7.2,1.3c1.9,0.5,4.4,1.3,7.5,2.4c0.1,3.4,0.3,7,0.7,10.7c-5.2-3-9.7-4.9-13.5-5.9c-3.8-1-7.4-1.4-10.9-1.4
			c-6.1,0-12,1.7-17.6,5.1c-5.6,3.4-10.6,8.7-14.9,16.1c-4.3,7.4-7.6,16.5-9.8,27.4c-2.3,10.9-3.4,22.1-3.4,33.6
			c0,11.1,1,21.7,2.9,31.8c1.9,10.1,4.8,18.5,8.7,25.3c3.9,6.8,8.5,11.9,13.9,15.4c5.4,3.5,11.2,5.2,17.6,5.2
			C760.6,906.8,769.3,904.1,779,898.6z"/>
		<path class="st3" d="M796.3,911.7c1-35.8,1.8-69.3,2.2-100.3c0.5-31.1,0.7-54.3,0.6-69.8c1.2,0.1,2.3,0.1,3.2,0.1s1.9-0.1,3.1-0.1
			l-1.7,79.6l65.9-0.4l1.2-62.6c0.1-3.5,0.1-9.2,0.1-17.1c1.2,0.1,2.3,0.1,3.2,0.1c0.9,0,1.9-0.1,3.1-0.1
			c-1.7,51.5-2.7,108.2-3.3,170.1c-1.2-0.1-2.2-0.1-3.1-0.1c-0.9,0-2,0.1-3.2,0.1c1.1-28.9,1.7-56.5,1.9-82.9l-65.9,0.4l-1,61.2
			l-0.1,21.7c-1.2-0.1-2.3-0.1-3.1-0.1C798.5,911.6,797.5,911.6,796.3,911.7z"/>
		<path class="st3" d="M898.1,911l1.4-50l1.2-74.9l0.2-25.9c0-6.9,0-13.3,0-19.3c1.2,0.1,2.3,0.1,3.2,0.1c0.9,0,2-0.1,3.2-0.1
			l-1.2,45.1l-1.4,92.9l-0.3,32.2c-1.2-0.1-2.2-0.1-3.2-0.1C900.4,910.9,899.3,910.9,898.1,911z"/>
		<path class="st3" d="M928.2,910.8l1.4-39.5l1.6-89.4l0.3-41.3c1.2,0.1,2.2,0.1,3.1,0.1c0.9,0,2-0.1,3.2-0.1l-2.2,97.2l-1.1,65.1
			l14.5,0c10.4-0.1,17.6-0.2,21.5-0.4c3.9-0.2,7.8-0.5,11.5-0.9c-0.2,3.3-0.3,6.3-0.3,8.8c-10,0-18.5,0-25.3,0L928.2,910.8z"/>
		<path class="st3" d="M993.8,910.4l1.9-59.2l1.6-97.1c0-3.6,0-8.2,0-13.8l15.7,0l19.4-0.3c9.1-0.1,16.5,1.1,22,3.6
			c5.5,2.5,10.4,7.6,14.8,15.3c4.3,7.7,7.4,16.5,9.2,26.4c1.8,9.8,2.8,20.4,2.8,31.8c0,13.5-1.3,26.6-4,39.2
			c-2.7,12.6-6.8,23.2-12.2,31.8c-5.4,8.6-11.5,14.4-18.3,17.4c-6.8,3-14.3,4.6-22.4,4.6l-15,0L993.8,910.4z M999.9,902.5
			c8.4,0.2,15,0.3,19.8,0.2c4.8,0,9.7-0.5,14.7-1.3c5-0.9,9.5-2.4,13.5-4.6c4-2.2,7.8-6.2,11.6-11.9c3.8-5.8,6.9-12.2,9.3-19.3
			c2.4-7.1,4.2-14.9,5.4-23.5c1.2-8.6,1.7-17.3,1.7-26.1c0-8.5-0.6-16.6-1.8-24.4c-0.8-5.6-2.1-10.9-3.7-15.8
			c-1.9-5.6-4-10.3-6.5-14.1c-2.4-3.9-5-6.7-7.7-8.7c-2.7-1.9-6-3.3-9.9-4.1c-3.6-0.8-7.8-1.2-12.6-1.3l-16.9,0.1l-13.7,0.2
			L999.9,902.5z"/>
	</g>
	<g>
		<path class="st4" d="M1101.3,807.5l58.5,0.5l61.5,0.1l31.3-0.7c0.3-6.2,0.4-11.7,0.4-16.3c-0.1-42.9-6.3-71.5-18.6-86
			c-6.3-7.4-15.3-12.3-27-14.6c-11.6-2.3-32.8-3.4-63.4-3.3l-29.9,0.6l-9.3,0.7c-3.9,0-5.9-2.6-5.9-7.8c0-4.6,1.9-6.9,5.6-6.9
			c2.2,0,5.2,0.2,8.9,0.5l45.1,1.3c19,0.4,31.9,0.9,38.7,1.5c6.8,0.6,13.2,1.8,19.2,3.6c12.3,3.7,22.1,12.4,29.4,26.1
			c9.4,17.4,14.2,47.3,14.3,89.7c0.1,37.1-3,65.2-9.1,84.1c-4.7,14.9-12.7,25.5-24,31.8c-5.2,2.8-10.5,4.5-16,5
			c-5.5,0.5-22.3,0.9-50.3,1.1l-59.2,1L1101.3,807.5z"/>
		<path class="st4" d="M1227.3,525.4l3.2,0l21.7-0.3l2.8,0l0.2,111.7l-6.9-0.2l-79.4-0.6l-37.7,0.9l-25.6,0.3l-4.5,0.2l-0.2-83.7
			c-0.1-34.2,0.8-60.1,2.6-77.8c1.8-17.7,5-32.5,9.6-44.5c6.2-16.1,14.9-28.6,26-37.5c8.5-6.8,17.4-10.2,26.8-10.2
			c10.1,0,19.7,3.7,28.9,11.2c11,9,19.5,21.7,25.4,38.3c5.9,16.5,8.9,35.7,9,57.4C1229.2,498.8,1228.6,510.4,1227.3,525.4z
			 M1108.4,525.7l7.6,0l75.5,0.4l28.1-0.5c1.6-9.7,2.3-22.2,2.3-37.6c0-13.8-1.7-26.9-5.2-39.2c-3.4-12.3-8.2-22.7-14.4-31.3
			c-10.5-14.5-22.7-21.7-36.5-21.6c-13.2,0.1-25.1,7.3-35.8,21.8c-7.6,10.3-13.1,23.6-16.5,39.8c-3.4,16.3-5.1,37.2-5.1,62.7
			L1108.4,525.7z"/>
	</g>
</g>
<g>
	<path class="st5" d="M144.7,414c-84.7-0.5-98.8-58.2-94.6-51.7c4.2,6.5,22.3-4,28.7-13.4c6.4-9.4,19.4-19.7,19.4-19.7l-23.3-9
		L80,302c0,0,9.2,5,16.9,11.4c7.6,6.4,16.2,2.7,16.2,2.7c-46-27.4-34.3-69.6-34.3-69.6c-6.5-10.2,4.5-14.3,4.5-14.3
		c27-72.6,79.3-39.9,79.3-39.9s47.7,2.3,42,79.6c0,0,7.1,15.3-3.9,12.4c0,0-19,45.7-66.7,39.9c0,0,17.6,5.4,22.8,8.8
		c5.2,3.4,16.2-0.7,16.2-0.7l-6.9,27.3l-25.6-12.6c0,0,0.5,21.8-0.5,28.4c-1,6.6,7.1,36.9,15.5,37.3C163.8,413,144.7,414,144.7,414z
		"/>
	<g>
		<path class="st6" d="M198.5,221.8l7.7-3.7c0,0,8,10.7,6,13.5c-2,2.7-8.7,7.9-8.7,7.9L198.5,221.8z"/>
		<path class="st7" d="M198.5,221.8c1.1-0.7,2.3-1.4,3.5-2.2l1.9-1.2c0.6-0.4,1.3-0.8,2-1.1l0.6-0.4l0.6,0.6
			c1.5,1.8,2.8,3.6,4.1,5.5c0.6,1,1.2,2,1.7,3.1c0.5,1.1,1,2.2,1.2,3.6c0.1,0.7,0.1,1.7-0.6,2.7c-0.4,0.5-0.8,1-1.2,1.4
			c-0.8,0.9-1.7,1.7-2.5,2.4c-1.7,1.5-3.5,2.9-5.3,4.3l-1.8,1.3l-0.5-2c-0.4-1.6-0.8-3.1-1.1-4.7c-0.3-1.6-0.7-3.1-1-4.6
			c-0.3-1.5-0.6-3-0.8-4.5C198.9,224.6,198.7,223.2,198.5,221.8z M198.6,221.8l5,17.6l-0.2-0.1c1.8-1.4,3.5-2.8,5.2-4.3
			c0.8-0.8,1.6-1.5,2.4-2.3c0.4-0.4,0.8-0.8,1.1-1.3c0.3-0.4,0.3-1,0.3-1.5c-0.1-1.1-0.5-2.1-1-3.2c-0.5-1-1-2-1.5-3
			c-1.1-1.9-2.4-3.8-3.7-5.6l0.1,0L198.6,221.8z"/>
	</g>
	<path class="st8" d="M206.2,218.1c0,0-3.7-15.2,16.6-4s23.8,45.3,47.8,28.8c0,0-66.4,44.2-58.5-11.3"/>
	<g>
		<polygon class="st6" points="115.6,189.7 109.3,180.8 93.8,193.7 98.5,204.1 		"/>
		<path class="st7" d="M115.5,189.7l-3.7-4.3c-1.2-1.4-2.3-2.7-3.4-4l1.4,0.2c-1.2,1.2-2.5,2.3-3.7,3.4c-1.2,1.1-2.5,2.3-3.8,3.4
			c-1.3,1.1-2.5,2.2-3.8,3.3l-3.8,3.3l0.4-1.8c0.8,1.7,1.5,3.5,2.3,5.2c0.8,1.7,1.5,3.5,2.3,5.2l-2.2-0.5c1.4-1.1,2.8-2.2,4.2-3.3
			c1.4-1.1,2.9-2.2,4.4-3.3c1.5-1.1,3-2.2,4.6-3.3L115.5,189.7z M115.7,189.7l-17.1,14.5l-0.1,0.1l-0.1-0.2l-4.7-10.4l-0.1-0.1
			l0.1-0.1l15.5-12.8l0.1-0.1l0.1,0.1L115.7,189.7z"/>
	</g>
	<path class="st8" d="M109.3,180.8c0,0,18.7-12.3-5.2-27.8s-49.5-26-33.2-37.9c0,0-47.7,59.5,22.9,78.5L109.3,180.8z"/>
	<path class="st5" d="M59.9,381c0,0-37.2,27.9-40.3,38.6s-3.5,23,7.7,16.2c11.3-6.8,48.2-40.7,48.2-40.7L59.9,381z"/>
	<path class="st5" d="M111.1,410.3c0,0,7.3,34.7,11.9,49.7c4.6,15,4.2,20.4,12.8,12.6s-3.5-59.1-3.5-59.1L111.1,410.3z"/>
	<path class="st5" d="M170.1,338.1c0,0,45.9,0.2,51-9c5.2-9.2,20.1-16.7,16.9-4.7c-3.2,12-13.2,20-13.2,20s-57.6,10.2-56.5,5.9
		C169.4,346.1,170.1,338.1,170.1,338.1z"/>
	<path class="st5" d="M78.6,306.4c0,0-23.3-22.1-23.5-36.5c-0.1-14.4,1.5-31.8-2.4-22.2c-3.9,9.6-8.8,22.3-6.4,26.9
		s8.3,34.7,29.4,40.7L78.6,306.4z"/>
	<path class="st8" d="M162.6,192.3c0,0-53.7,68.4-79.3,39.9C83.3,232.2,108.1,151.4,162.6,192.3z"/>
	<path class="st8" d="M204.6,271.8"/>
	<path class="st8" d="M204.6,271.8c-47.9-6.2-55.3-64.4-55.3-64.4l13.4-15.1c0,0,42.4-7,42.4,62.4L204.6,271.8z"/>
	<path class="st8" d="M113.1,316.1c0,0,5.8,17.6,22.8,8.8c0,0,29.3,12.7,37,7.3l-6.9,27.3l-25.6-12.6c0,0-0.8,32.7,0.8,38.8
		c1.6,6.1,6.1,24.1,14.3,26.9c0,0-87.2,10.4-105.5-48c0,0,22.4-1.2,25.9-12c3.5-10.8,20.1-22.4,22.3-23.3c2.1-0.9-23.3-9-23.3-9
		L80,302c0,0,16.9,12.6,20.7,13.8C104.5,316.9,113.1,316.1,113.1,316.1z"/>
	<path class="st9" d="M106.6,247.6c0,0,7.5,19.6,17.5,6.7"/>
	<path class="st9" d="M149.5,264.1c0,0,7.5,19.6,17.5,6.7"/>
	<path class="st9" d="M113.9,286.5c0,0,8.2,30.8,30.1,11.6"/>
</g>
<g>
	<path class="st10" d="M929.3,511.1c0,0-14,14.3,4.5,18.3c0,0,16.3,41.5,42.1,37.4c0,0,64.8,12.6,69.9-56.8c0,0,18.3-14.2,2-21.3
		c-11-4.8-3.6-5.1-3.6-5.1s-11-30.9-31.8-30.3c-20.8,0.7-57.9-8.8-69.7,19.7C930.9,501.6,929.3,511.1,929.3,511.1z"/>
	<path class="st8" d="M926.7,517.9c0,0-9.2-16.6-1.9-23.4c7.3-6.8-10.5-31,13.4-36.8c23.9-5.9-5.3-23.7,28.8-27.2
		c34.1-3.4,24.6-16,37.1,3.7c12.5,19.6,20.6-23.9,27.2,13.6s39.7,14.4,25.2,58.5c0,0-20.5,8.4-22.7-10.3c0,0-16.7,8.4-17.5-4.6
		c-0.8-13-5.5,12.7-24.2,0.5s-28.7,0.4-28.9-14.6s1.9,13.8-10.9,17.3c-12.9,3.5,1.1,26-10.9,24.8
		C929.5,518.1,926.7,517.9,926.7,517.9z"/>
	<path class="st5" d="M1038.1,571.2c0,0,45.3-17,47.6-27.9c2.2-10.9,14.6-23.8,15.2-10.9c0.6,12.9-6.7,24.5-6.7,24.5
		s-53.7,31.6-53.9,27S1038.1,571.2,1038.1,571.2z"/>
	<path class="st5" d="M940.2,574.5c0,0-30-12.8-34.6-26.8c-4.6-14-8.4-31.6-9.3-20.7c-0.8,10.8-1.7,25,2.1,28.6
		c3.8,3.6,19,30.7,41.8,28.6V574.5z"/>
	<path class="st5" d="M1009.1,675.3c0,0,18.1,31.1,27.3,44s10.5,18.3,16.6,7.5c6.1-10.9-22-56.3-22-56.3L1009.1,675.3z"/>
	<path class="st5" d="M939.1,670.4c0,0-28,41.2-27.7,52.7c0.3,11.6,3.7,23.8,12.7,12.9c9-10.9,34.8-57.8,34.8-57.8L939.1,670.4z"/>
	<path class="st11" d="M951.5,624.7c0,0-2.7,27.1-13.9,42.7c0,0,15.6,19,26.3,21.7c0,0,13.6-25.8,16.4-28.2
		c2.8-2.4,15.2,18.7,21.3,22.8c6.2,4.1,30.3-8.2,33.7-11.6l-14.6-39.7L951.5,624.7z"/>
	<path class="st10" d="M974.3,567.7c0,0,0,7.3-5.1,7.3c-5.1,0-15.7,3.4,0,6.8s32,1.4,37.1,0s-6.9-16.4-6.9-16.4L974.3,567.7z"/>
	<path class="st8" d="M974.9,572.2c0,0,11.2,15.1,25.3,0c0,0,32.9,1.4,38.8-6.8l1.7,29.2l-29.2-2.7c0,0,9.9,36.3,13.3,41.7
		c3.5,5.3-77.6,3-77.5-8.9c0.1-11.9,15.2-32.5,17-34.2c1.8-1.7-25.8,0-25.8,0l-0.6-19.7c0,0,20.6,6,24.7,5.7
		C966.7,576.2,974.9,572.2,974.9,572.2z"/>
	<path class="st12" d="M958.9,510c0,0,10.2,19.3,18.1,0"/>
	<path class="st12" d="M1000.1,510c0,0,10.2,19.3,18.1,0"/>
	<path class="st12" d="M968,539c0,0,12.6,36,41.1,3.4"/>
</g>
<polygon class="st13" points="288.9,452.4 372.9,327.6 463.1,452.4 374.5,414 "/>
<rect x="339.1" y="510" class="st14" width="67.5" height="195.3"/>
<path class="st1" d="M400.7,605.8c0,2.7-2,5-4.5,5s-13-2.2-13-5s10.5-5,13-5S400.7,603.1,400.7,605.8z"/>
<line class="st14" x1="339.1" y1="589.6" x2="406.7" y2="589.6"/>
<line class="st14" x1="339.1" y1="618.4" x2="406.7" y2="618.4"/>
</svg>
