<?xml version="1.0" encoding="utf-8"?>
<!-- Generator: Adobe Illustrator 23.0.6, SVG Export Plug-In . SVG Version: 6.00 Build 0)  -->
<svg version="1.1" id="Calque_1" xmlns="http://www.w3.org/2000/svg" xmlns:xlink="http://www.w3.org/1999/xlink" x="0px" y="0px"
	 viewBox="0 0 1280 1024" style="enable-background:new 0 0 1280 1024;" xml:space="preserve">
<style type="text/css">
	.st0{fill:#FFFFFF;stroke:#000000;stroke-width:8;stroke-miterlimit:10;}
	.st1{fill:#FFEB99;}
	.st2{fill:none;stroke:#FFEB99;stroke-width:15;stroke-miterlimit:10;}
	.st3{fill:#AFA1A1;}
	.st4{fill:#FFA9D2;}
	.st5{fill:#FCC9A8;}
	.st6{fill:#020101;}
	.st7{fill:#070606;}
	.st8{fill:#B97227;}
	.st9{fill:none;stroke:#2A0000;stroke-width:1.5299;stroke-miterlimit:10;}
	.st10{fill:#FDD3BC;}
	.st11{fill:#216D6D;}
	.st12{fill:none;stroke:#000000;stroke-width:1.5894;stroke-miterlimit:10;}
	.st13{fill:none;stroke:#FFA9D2;stroke-width:7;stroke-miterlimit:10;}
	.st14{fill:none;stroke:#FFEB99;stroke-miterlimit:10;}
</style>
<rect class="st0" width="1280" height="1024"/>
<g>
	<g>
		<path class="st1" d="M228.1,653.7c10.3,6.5,21.4,12.1,33.3,16.7c11.9,4.6,24.7,8.2,38.4,10.8c3.3,0.6,5,2.1,5,4.5
			c0,3.3-2.5,4.9-7.4,4.9c-11.2,0-27-4.5-47.3-13.7c-16.9-7.6-36.3-19.4-58.1-35.3v6.1l0.2,25.2v14.4H94.3v-6.7l0.3-48.4l0.5-57.9
			l-0.3-89.6h64.6c28.9,0,50.8,0.7,65.5,2.2c14.8,1.5,27.4,4.3,37.7,8.3c16.9,6.5,30.3,17.3,40.2,32.2c9.1,13.9,13.7,28.4,13.7,43.6
			c0,16.2-5.1,31.5-15.2,45.9C284.8,639.9,260.5,652.2,228.1,653.7z M212.9,644.5l7.7,0.1c22,0,40.7-5.7,55.9-17.1
			c9.6-7.1,17-16,22.1-26.7c4.8-9.8,7.2-19.8,7.2-30c0-17.3-6.1-32.8-18.3-46.4c-9.3-10.6-21-18.1-35-22.4c-14-4.4-33.8-6.7-59.2-7
			l-1.4,99.4v26.9l0.2,7C198.6,634.1,205.5,639.5,212.9,644.5z"/>
		<path class="st2" d="M444.4,484.7V495l-1,81.3l1,110.9H346l1-121.2l-1.1-74.1l0.2-7.3H444.4z"/>
		<path class="st1" d="M479.6,652.8c1.9,0,4.2,1.3,6.8,4c8,8.1,17.9,14.6,29.5,19.5c11.6,4.9,23.1,7.3,34.5,7.3
			c12.5,0,18.8-3.5,18.8-10.5c0-4.5-2.2-9.5-6.6-15.1c-4.4-5.6-14.9-16.6-31.5-33.2c-20.9-20.9-34.8-36.4-41.8-46.4
			c-9.2-13.4-13.8-26.1-13.8-38.1c0-18.2,8.8-33.1,26.4-44.7c17.3-11.4,38.5-17.1,63.8-17.1c17.7,0,33.9,3.3,48.7,9.9
			c5.6,2.6,10.4,5.5,14.4,8.9c4,3.4,6,6.2,6,8.5c0,1.1-0.6,2.1-1.7,3c-1.1,0.9-2.3,1.4-3.5,1.4c-1.8,0-4.5-1.5-8-4.6
			c-5.8-5-13.4-9.2-22.8-12.5c-9.4-3.3-18.5-5-27.2-5c-5.4,0-9.7,1.1-13.1,3.2c-3.4,2.1-5.1,4.9-5.1,8.2c0,4.1,2.1,9,6.3,14.8
			c4.2,5.8,11.2,13.6,21.2,23.3c31.5,31,50.8,51.8,57.9,62.6c7.4,11.4,11.1,22.4,11.1,32.9c0,9-2.6,17.5-7.9,25.5
			c-5.3,8-12.5,14.6-21.9,19.7c-17.8,9.8-39.5,14.7-65.1,14.7c-23.6,0-44.3-5.6-62.2-16.9c-12.5-7.9-18.8-14.1-18.8-18.6
			c0-1.3,0.6-2.4,1.7-3.5C476.8,653.3,478.1,652.8,479.6,652.8z"/>
		<path class="st1" d="M776,549.7c-0.2,4.6-0.3,10.1-0.3,16.6v8.9l1.1,102.4l54.5-0.5l38.6-0.4c6.3,0,9.5,1.8,9.5,5.3
			c0,2.9-1.6,4.6-4.8,5c-0.8,0.1-5.2,0.2-13.3,0.3H678.6l0.2-7.7l0.2-49.6l0.6-53.1l-1.3-92.2h170.4c7.6,0,11.9,0.1,13,0.4
			c2.5,0.6,3.7,2.2,3.7,5c0,3.4-2.4,5.1-7.1,5.1h-1.1l-80.5-0.9l-0.6,46l17.5,0.1l56.3-0.9l12.4-0.1c4.5,0,7.5,0.4,8.9,1.1
			c1.4,0.7,2.2,2.1,2.2,4.2c0,3.9-3.5,5.9-10.6,5.9l-12.7-0.4L776,549.7z"/>
	</g>
	<g>
		<path class="st3" d="M766.8,827.7c-0.3,2.4-0.6,5.3-0.8,8.5c-4.4,1.8-8.6,3-12.5,3.7c-3.9,0.7-7.4,1.1-10.5,1.1
			c-6.3,0-12.4-1.6-18.1-4.8c-5.7-3.2-10.6-8-14.7-14.4c-4.1-6.4-7.1-14-9.1-22.8c-1.9-8.8-2.9-18-3-27.7c0-10.8,1.1-21.3,3.3-31.4
			c2.2-10.1,5.5-18.6,9.7-25.3c4.3-6.7,9.4-11.7,15.4-15c6-3.3,12.4-4.9,19.3-4.9c2.3,0,4.8,0.1,7.5,0.5c2.7,0.3,4.9,0.7,6.6,1.1
			c1.7,0.4,4,1.1,6.9,2c0.1,2.8,0.3,5.8,0.6,8.9c-4.8-2.5-8.9-4.1-12.4-4.9c-3.5-0.8-6.8-1.2-10-1.2c-5.6,0-11,1.5-16.2,4.3
			c-5.2,2.8-9.7,7.3-13.7,13.4c-3.9,6.2-7,13.8-9,22.8c-2.1,9.1-3.1,18.4-3.1,28c0,9.3,0.9,18.1,2.7,26.6c1.8,8.4,4.4,15.5,8,21.1
			c3.6,5.7,7.8,10,12.8,12.9c4.9,2.9,10.3,4.4,16.1,4.3C750,834.6,758,832.3,766.8,827.7z"/>
		<path class="st3" d="M782.8,838.6c0.9-29.9,1.6-57.8,2-83.7c0.4-25.9,0.6-45.3,0.6-58.2c1.1,0.1,2.1,0.1,2.9,0.1
			c0.8,0,1.7,0,2.8-0.1l-1.6,66.5l60.6-0.4l1.1-52.2c0.1-2.9,0.1-7.7,0.1-14.2c1.1,0.1,2.1,0.1,2.9,0.1c0.8,0,1.7,0,2.8-0.1
			c-1.5,43-2.5,90.3-3,142c-1.1-0.1-2-0.1-2.8-0.1c-0.9,0-1.8,0-2.9,0.1c1-24.1,1.5-47.2,1.7-69.2l-60.6,0.4l-0.9,51.1l-0.1,18.1
			c-1.1-0.1-2.1-0.1-2.9-0.1C784.8,838.5,783.9,838.6,782.8,838.6z"/>
		<path class="st3" d="M876.3,838.1l1.3-41.7l1.1-62.5l0.2-21.6c0-5.8,0-11.1,0-16.1c1.1,0.1,2.1,0.1,2.9,0.1c0.9,0,1.8,0,2.9-0.1
			l-1.1,37.7l-1.3,77.5l-0.2,26.8c-1.1-0.1-2.1-0.1-2.9-0.1C878.4,838,877.4,838,876.3,838.1z"/>
		<path class="st3" d="M904,837.9l1.3-33l1.5-74.6L907,696c1.1,0.1,2,0.1,2.8,0.1c0.9,0,1.8,0,2.9-0.1l-2,81.1l-1,54.3l13.4,0
			c9.6-0.1,16.1-0.2,19.7-0.3c3.6-0.2,7.1-0.4,10.6-0.8c-0.2,2.8-0.2,5.2-0.2,7.4c-9.2,0-17,0-23.3,0L904,837.9z"/>
		<path class="st3" d="M964.3,837.6l1.7-49.4l1.5-81c0-3,0-6.8,0-11.5l14.4,0l17.9-0.2c8.4-0.1,15.1,0.9,20.2,3
			c5.1,2,9.6,6.3,13.6,12.8c4,6.5,6.8,13.8,8.5,22c1.7,8.2,2.5,17.1,2.6,26.6c0,11.3-1.2,22.2-3.7,32.7
			c-2.5,10.5-6.2,19.4-11.2,26.5c-5,7.2-10.6,12-16.8,14.6c-6.3,2.5-13.1,3.8-20.6,3.9l-13.8,0L964.3,837.6z M969.8,831
			c7.7,0.2,13.8,0.2,18.2,0.2c4.4,0,8.9-0.4,13.5-1.1c4.6-0.7,8.8-2,12.4-3.8c3.6-1.8,7.2-5.1,10.7-10c3.5-4.8,6.3-10.2,8.6-16.1
			c2.2-5.9,3.9-12.5,4.9-19.6c1.1-7.2,1.6-14.5,1.6-21.8c0-7.1-0.6-13.9-1.6-20.4c-0.8-4.7-1.9-9.1-3.4-13.2
			c-1.7-4.6-3.7-8.6-5.9-11.8c-2.2-3.2-4.6-5.6-7-7.2c-2.4-1.6-5.5-2.8-9.1-3.4c-3.3-0.7-7.2-1-11.6-1.1l-15.5,0.1l-12.6,0.2
			L969.8,831z"/>
	</g>
	<g>
		<path class="st4" d="M1063,751.7l53.8,0.4l56.5,0l28.8-0.6c0.3-5.2,0.4-9.7,0.4-13.6c-0.1-35.8-5.8-59.7-17.1-71.8
			c-5.8-6.2-14.1-10.3-24.8-12.2c-10.7-1.9-30.1-2.9-58.3-2.8l-27.5,0.5l-8.5,0.6c-3.6,0-5.4-2.1-5.4-6.5c0-3.8,1.7-5.7,5.2-5.8
			c2,0,4.7,0.1,8.2,0.4l41.4,1.1c17.4,0.3,29.3,0.8,35.6,1.2c6.3,0.5,12.1,1.5,17.6,3c11.3,3.1,20.3,10.4,27,21.8
			c8.7,14.5,13.1,39.5,13.1,74.8c0.1,31-2.7,54.4-8.4,70.2c-4.3,12.5-11.7,21.3-22.1,26.5c-4.8,2.4-9.7,3.8-14.7,4.2
			c-5.1,0.4-20.5,0.7-46.2,0.9l-54.4,0.8L1063,751.7z"/>
		<path class="st4" d="M1178.9,516.3l2.9,0l19.9-0.2l2.6,0l0.2,93.2l-6.3-0.1l-73-0.5l-34.7,0.7l-23.6,0.2l-4.2,0.2l-0.1-69.9
			c-0.1-28.5,0.7-50.2,2.4-64.9c1.6-14.7,4.6-27.1,8.9-37.1c5.7-13.5,13.7-23.9,23.9-31.3c7.8-5.6,16-8.5,24.6-8.5
			c9.3,0,18.1,3.1,26.6,9.4c10.1,7.5,17.9,18.1,23.4,31.9c5.5,13.8,8.2,29.8,8.2,47.9C1180.6,494.1,1180,503.8,1178.9,516.3z
			 M1069.6,516.6l7,0l69.4,0.3l25.9-0.4c1.4-8.1,2.1-18.5,2.1-31.3c0-11.5-1.6-22.4-4.7-32.7c-3.1-10.3-7.5-19-13.2-26.1
			c-9.6-12.1-20.8-18.1-33.6-18.1c-12.1,0-23.1,6.1-32.9,18.2c-7,8.6-12,19.7-15.2,33.2c-3.2,13.6-4.7,31-4.7,52.3L1069.6,516.6z"/>
	</g>
</g>
<g>
	<path class="st5" d="M183.9,423.4c-77.8-0.4-90.8-48.6-87-43.2s20.5-3.3,26.4-11.1c5.9-7.8,17.8-16.5,17.8-16.5l-21.5-7.5l4.8-15.2
		c0,0,8.5,4.1,15.5,9.5s14.9,2.3,14.9,2.3c-42.2-22.9-31.5-58.1-31.5-58.1c-5.9-8.5,4.2-11.9,4.2-11.9
		c24.8-60.5,72.8-33.3,72.8-33.3s43.8,1.9,38.6,66.4c0,0,6.5,12.8-3.6,10.4c0,0-17.5,38.1-61.3,33.3c0,0,16.2,4.5,21,7.3
		s14.9-0.6,14.9-0.6l-6.4,22.8L180,367.3c0,0,0.5,18.2-0.4,23.7c-0.9,5.5,6.5,30.8,14.2,31.1S183.9,423.4,183.9,423.4z"/>
	<g>
		<path class="st6" d="M233.4,263l7.1-3.1c0,0,7.3,9,5.5,11.2c-1.8,2.3-8,6.6-8,6.6L233.4,263z"/>
		<path class="st7" d="M233.3,263c0.5-0.3,1-0.6,1.6-0.9l1.7-1c1.1-0.7,2.3-1.3,3.6-1.9l0.5-0.3l0.4,0.5c1.3,1.5,2.6,3,3.8,4.6
			c0.6,0.8,1.1,1.7,1.6,2.6c0.5,0.9,1,1.9,1.1,3.2c0,0.3,0,0.7-0.1,1.2c-0.1,0.2-0.1,0.4-0.3,0.7c-0.1,0.1-0.1,0.2-0.2,0.3l-0.1,0.2
			c-0.4,0.4-0.7,0.8-1.1,1.2c-0.7,0.7-1.5,1.3-2.3,2c-1.6,1.2-3.1,2.4-4.8,3.5l-1.5,1l-0.5-1.6c-0.4-1.3-0.7-2.6-1-3.9l-0.9-3.9
			c-0.3-1.3-0.6-2.5-0.8-3.8C233.8,265.3,233.5,264.1,233.3,263z M233.5,263l4.6,14.7l-0.2-0.1c1.6-1.1,3.1-2.3,4.6-3.5
			c0.8-0.6,1.5-1.2,2.2-1.9c0.7-0.7,1.6-1.3,1.4-2.3c-0.1-0.9-0.5-1.8-0.9-2.7c-0.4-0.9-0.9-1.7-1.4-2.5c-1-1.6-2.2-3.2-3.4-4.7
			l0.1,0L233.5,263z"/>
	</g>
	<path class="st8" d="M240.5,259.9c0,0-3.4-12.7,15.3-3.3c18.7,9.4,21.9,37.8,43.9,24c0,0-61,36.9-53.7-9.5"/>
	<g>
		<polygon class="st6" points="157.2,236.2 151.4,228.8 137.2,239.5 141.5,248.2 		"/>
		<path class="st7" d="M157.1,236.2l-3.3-3.6c-1.1-1.1-2.1-2.2-3.1-3.3l1.2,0.2l-3.4,2.9c-1.1,1-2.3,1.9-3.5,2.8
			c-1.2,0.9-2.3,1.9-3.5,2.8l-3.5,2.7l0.4-1.7c0.7,1.4,1.4,2.9,2.1,4.4c0.7,1.5,1.4,2.9,2.1,4.4l-1.9-0.4c1.3-0.9,2.5-1.9,3.9-2.7
			l4-2.7l2-1.4l2.1-1.4L157.1,236.2z M157.3,236.2l-15.7,12.1l-0.1,0.1l-0.1-0.1l-4.3-8.7l-0.1-0.1l0.1-0.1l14.2-10.7l0.1-0.1
			l0.1,0.1L157.3,236.2z"/>
	</g>
	<path class="st8" d="M151.4,228.8c0,0,17.1-10.3-4.8-23.2s-45.5-21.7-30.5-31.6c0,0-43.8,49.7,21.1,65.5L151.4,228.8z"/>
	<path class="st5" d="M106,395.8c0,0-34.2,23.3-37,32.2c-2.8,8.9-3.2,19.2,7.1,13.5c10.3-5.7,44.3-34,44.3-34L106,395.8z"/>
	<path class="st5" d="M153,420.3c0,0,6.7,29,11,41.5c4.2,12.5,3.8,17,11.8,10.5c8-6.5-3.2-49.3-3.2-49.3L153,420.3z"/>
	<path class="st5" d="M207.3,360c0,0,42.1,0.2,46.9-7.5s18.5-13.9,15.5-3.9c-3,10-12.1,16.7-12.1,16.7s-53,8.5-52,4.9
		S207.3,360,207.3,360z"/>
	<path class="st5" d="M123.2,333.5c0,0-21.5-18.5-21.6-30.5s1.4-26.5-2.2-18.5s-8.1,18.6-5.9,22.5s7.6,29,27,34L123.2,333.5z"/>
	<path class="st8" d="M200.4,238.3c0,0-49.4,57.1-72.8,33.3C127.5,271.7,150.3,204.3,200.4,238.3z"/>
	<path class="st8" d="M239,304.7"/>
	<path class="st8" d="M239,304.7c-44-5.2-50.9-53.8-50.9-53.8l12.3-12.6c0,0,38.9-5.8,38.9,52.1L239,304.7z"/>
	<path class="st8" d="M154.9,341.7c0,0,5.3,14.7,21,7.3c0,0,26.9,10.6,34,6.1l-6.4,22.8L180,367.3c0,0-0.8,27.3,0.7,32.4
		c1.5,5.1,5.6,20.1,13.1,22.5c0,0-80.2,8.7-96.9-40.1c0,0,20.6-1,23.8-10c3.2-9,18.5-18.7,20.5-19.4c2-0.8-21.5-7.5-21.5-7.5
		l4.8-15.2c0,0,15.5,10.5,19,11.5C147,342.4,154.9,341.7,154.9,341.7z"/>
	<path class="st9" d="M149,284.5c0,0,6.8,16.3,16.1,5.6"/>
	<path class="st9" d="M188.3,298.3c0,0,6.8,16.3,16.1,5.6"/>
	<path class="st9" d="M155.7,317c0,0,7.5,25.7,27.6,9.6"/>
</g>
<g>
	<path class="st10" d="M904.9,504.4c0,0-12.9,11.9,4.1,15.3c0,0,15,34.6,38.7,31.2c0,0,59.5,10.5,64.3-47.4c0,0,16.8-11.9,1.8-17.8
		c-10.1-4-3.3-4.2-3.3-4.2s-10.1-25.8-29.2-25.2c-19.1,0.6-53.2-7.4-64,16.4C906.5,496.5,904.9,504.4,904.9,504.4z"/>
	<path class="st8" d="M902.6,510c0,0-8.5-13.8-1.7-19.5c6.8-5.7-9.7-25.8,12.3-30.7c22-4.9-4.9-19.8,26.5-22.7
		c31.4-2.9,22.6-13.3,34.1,3.1s18.9-19.9,25,11.3c6.1,31.3,36.5,12,23.1,48.8c0,0-18.9,7-20.9-8.6c0,0-15.3,7-16.1-3.8
		c-0.8-10.9-5,10.6-22.2,0.4c-17.2-10.2-26.4,0.4-26.5-12.2c-0.1-12.5,1.8,11.5-10,14.5s1,21.7-10,20.7
		C905.2,510.3,902.6,510,902.6,510z"/>
	<path class="st5" d="M1004.9,554.5c0,0,41.6-14.2,43.7-23.2c2.1-9.1,13.4-19.8,13.9-9.1c0.5,10.8-6.2,20.4-6.2,20.4
		s-49.3,26.3-49.6,22.5C1006.6,561.3,1004.9,554.5,1004.9,554.5z"/>
	<path class="st5" d="M915,557.3c0,0-27.5-10.7-31.8-22.4c-4.3-11.7-7.7-26.3-8.5-17.3c-0.8,9-1.5,20.9,1.9,23.9
		c3.5,3,17.5,25.7,38.4,23.9V557.3z"/>
	<path class="st5" d="M978.3,641.4c0,0,16.6,26,25.1,36.7c8.5,10.8,9.7,15.3,15.3,6.2s-20.2-47-20.2-47L978.3,641.4z"/>
	<path class="st5" d="M914,637.3c0,0-25.7,34.4-25.4,44c0.3,9.6,3.4,19.8,11.7,10.8c8.2-9.1,32-48.2,32-48.2L914,637.3z"/>
	<path class="st11" d="M925.4,599.2c0,0-2.5,22.6-12.7,35.6c0,0,14.3,15.9,24.2,18.1c0,0,12.5-21.5,15.1-23.5
		c2.6-2,13.9,15.6,19.6,19c5.7,3.4,27.9-6.8,31-9.6l-13.4-33.1L925.4,599.2z"/>
	<path class="st10" d="M946.3,551.6c0,0,0,6.1-4.6,6.1c-4.6,0-14.5,2.8,0,5.7s29.4,1.1,34.1,0c4.6-1.1-6.3-13.7-6.3-13.7
		L946.3,551.6z"/>
	<path class="st8" d="M946.9,555.4c0,0,10.3,12.6,23.2,0c0,0,30.2,1.1,35.6-5.7l1.5,24.4l-26.8-2.3c0,0,9.1,30.3,12.3,34.8
		c3.2,4.5-71.3,2.5-71.2-7.4c0.1-9.9,13.9-27.1,15.6-28.5s-23.7,0-23.7,0l-0.5-16.4c0,0,18.9,5,22.7,4.7
		C939.4,558.7,946.9,555.4,946.9,555.4z"/>
	<path class="st12" d="M932.2,503.5c0,0,9.4,16.1,16.6,0"/>
	<path class="st12" d="M970,503.5c0,0,9.4,16.1,16.6,0"/>
	<path class="st12" d="M940.5,527.6c0,0,11.5,30.1,37.8,2.8"/>
</g>
<polygon class="st13" points="316.4,455.4 393.7,351.3 476.6,455.4 395.1,423.4 "/>
<rect x="362.6" y="503.5" class="st14" width="62" height="163"/>
<path class="st1" d="M419.2,583.4c0,2.3-1.9,4.1-4.1,4.1s-12-1.9-12-4.1s9.7-4.1,12-4.1S419.2,581.1,419.2,583.4z"/>
<line class="st14" x1="362.6" y1="569.8" x2="424.7" y2="569.8"/>
<line class="st14" x1="362.6" y1="593.9" x2="424.7" y2="593.9"/>
</svg>
