<?xml version="1.0" encoding="utf-8"?>
<!-- Generator: Adobe Illustrator 23.0.6, SVG Export Plug-In . SVG Version: 6.00 Build 0)  -->
<svg version="1.1" id="Calque_1" xmlns="http://www.w3.org/2000/svg" xmlns:xlink="http://www.w3.org/1999/xlink" x="0px" y="0px"
	 viewBox="0 0 200 200" style="enable-background:new 0 0 200 200;" xml:space="preserve">
<style type="text/css">
	.st0{fill:#EAE8E8;}
	.st1{fill:#EFE5B9;}
	.st2{fill:#FCC9A8;}
	.st3{fill:#020101;}
	.st4{fill:#070606;}
	.st5{fill:#B97227;}
	.st6{fill:none;stroke:#2A0000;stroke-width:0.8648;stroke-miterlimit:10;}
	.st7{fill:none;stroke:#FFA9D2;stroke-width:2.5639;stroke-miterlimit:10;}
	.st8{fill:#9CD3D1;}
</style>
<g>
	<rect x="7.6" y="7.6" class="st0" width="180.8" height="185.8"/>
	<path d="M187.8,8.2v184.7H8.2V8.2H187.8 M189,7H7v187h182V7L189,7z"/>
</g>
<g>
	<rect x="20.8" y="18.8" class="st1" width="153.1" height="127.3"/>
	<path d="M173.4,19.4v126.1H21.4V19.4H173.4 M174.5,18.3H20.3v128.4h154.3V18.3L174.5,18.3z"/>
</g>
<path class="st2" d="M124.6,140.5c-43.4,13.7-60-8.6-56.8-6.5c3.2,2.1,10.8-5.4,12.5-10.4c1.7-5.1,6.7-11.6,6.7-11.6H73.6l-0.3-8.6
	c0,0,5.5,0.6,10.5,2.1c5,1.5,8.7-1.5,8.7-1.5c-28-4.2-28.8-24.1-28.8-24.1c-5-3.3,0-6.8,0-6.8c2-35.4,34.1-30.1,34.1-30.1
	S122.5,36,132.2,70c0,0,6.1,5.4,0,6c0,0-2.3,22.6-27.7,28c0,0,9.9-0.6,13.1,0c3.2,0.6,8.2-3,8.2-3l0.9,12.8l-15.1-1.2
	c0,0,3.8,9.2,4.4,12.2c0.6,3,9.6,14.6,14,13.4C134.2,136.9,124.6,140.5,124.6,140.5z"/>
<g>
	<path class="st3" d="M121,49.6l3.3-2.8c0,0,5.8,3.3,5.2,4.8s-3.2,4.8-3.2,4.8L121,49.6z"/>
	<path class="st4" d="M120.9,49.6l1.4-1.6c0.5-0.5,1-1.1,1.6-1.6l0.2-0.2l0.3,0.2c1,0.5,2,1,2.9,1.6c0.5,0.3,0.9,0.7,1.4,1
		c0.4,0.4,0.9,0.8,1.3,1.4c0.1,0.2,0.2,0.3,0.2,0.6c0.1,0.2,0,0.6-0.1,0.8c-0.1,0.3-0.3,0.6-0.4,0.8c-0.3,0.5-0.6,1-0.9,1.4
		c-0.6,0.9-1.3,1.8-2,2.7l-0.5,0.7l-0.5-0.7c-1-1.2-1.8-2.5-2.6-3.7c-0.4-0.6-0.8-1.2-1.2-1.8L120.9,49.6z M121,49.6l5.4,6.7l-0.1,0
		c0.7-0.9,1.3-1.8,1.9-2.7c0.3-0.5,0.6-0.9,0.9-1.4c0.1-0.2,0.3-0.5,0.4-0.7c0.1-0.2,0-0.5-0.1-0.7c-0.6-0.9-1.5-1.6-2.3-2.2
		c-0.9-0.6-1.8-1.2-2.8-1.8l0.1,0L121,49.6z"/>
</g>
<path class="st5" d="M124.3,46.7c0,0-4.4-5.9,7.9-4.4c12.2,1.5,19.5,15.4,29.1,4.4c0,0-26.8,29.8-31.7,4.8"/>
<g>
	<polygon class="st3" points="73.3,49.5 68.7,46.7 62.8,54.8 66.9,58.5 	"/>
	<path class="st4" d="M73.3,49.5l-2.5-1.2c-0.8-0.4-1.6-0.7-2.3-1.1L69,47c-0.9,1.4-1.8,2.8-2.7,4.1l-2.8,4.1l-0.1-1
		c0.7,0.6,1.3,1.2,2,1.9l2,1.9l-1,0.1c0.5-0.7,1-1.4,1.6-2.1l1.7-2.1c0.6-0.7,1.2-1.4,1.8-2.1L73.3,49.5z M73.4,49.5l-6.4,9l0,0.1
		l-0.1-0.1l-4.1-3.7l-0.1-0.1l0-0.1l5.8-8l0,0l0,0L73.4,49.5z"/>
</g>
<path class="st5" d="M68.7,46.7c0,0,7.5-8.3-7.2-11C46.8,33.1,32,32.8,38.4,25c0,0-14.7,33.2,24.5,29.8L68.7,46.7z"/>
<path class="st2" d="M125.3,103.9c0,0,23.5-7.4,24.7-12.2s7.6-10.4,7.9-4.8s-3.5,10.7-3.5,10.7s-27.8,13.8-28,11.8
	C126.2,107.4,125.3,103.9,125.3,103.9z"/>
<path class="st2" d="M73.3,105.4c0,0-15.5-5.6-17.9-11.7c-2.4-6.1-4.4-13.8-4.8-9.1s-0.9,11,1.1,12.5s9.9,13.5,21.6,12.5V105.4z"/>
<path class="st5" d="M97.8,42.9c0,0-16.4,38-34.1,30.1C63.7,72.9,63.3,34.4,97.8,42.9z"/>
<path class="st5" d="M132.2,70"/>
<path class="st5" d="M132.2,70c-25.5,5.2-38.8-18.4-38.8-18.4l4.4-8.7c0,0,20.5-9.9,31.8,19.7L132.2,70z"/>
<path class="st5" d="M92.5,103.9c0,0,5.8,6.6,13.1,0c0,0,17,0.6,20.1-3l0.9,12.8l-15.1-1.2c0,0,4.9,14.1,6.7,16.4s7,9.3,11.7,9.2
	c0,0-42.9,18.7-61.7-3.2c0,0,11.3-4.2,11.3-9.4c0-5.2,6.7-12.9,7.6-13.6s-13.4,0-13.4,0l-0.3-8.6c0,0,10.7,2.6,12.8,2.5
	C88.3,105.6,92.5,103.9,92.5,103.9z"/>
<path class="st6" d="M78.1,75.7c0,0,7,7.1,10,0"/>
<path class="st6" d="M102.7,75.7c0,0,7,7.1,10,0"/>
<path class="st6" d="M88.2,91.1c0,0,9.2,11.8,17.3,0"/>
<g>
	<polygon class="st7" points="19.8,173.9 32.4,164.8 45.9,173.9 32.6,171.2 	"/>
	<g>
		<g>
			<g>
				<path class="st8" d="M14,182.8c-0.3,0-0.5-0.1-0.7-0.3c-0.2-0.2-0.3-0.4-0.3-0.7v-3.4c0-0.3,0.1-0.5,0.3-0.7
					c0.2-0.2,0.4-0.3,0.7-0.3H19v1.1h-4.7c-0.1,0-0.2,0.1-0.3,0.1c0,0,0,0.2,0,0.2v3.1c0,0,0,0.2,0,0.2c0,0,0.1,0.1,0.3-0.4H19v1.1
					L14,182.8L14,182.8z"/>
				<path class="st8" d="M19.9,183.1v-5.6h1v1.1h2.9c0.3,0.2,0.5,0.3,0.8,0.5s0.3,0.7,0.3,0.7v3.1h-1v-2.9c0-0.1,0-0.2-0.1-0.2
					c0,0-0.1-0.1-0.3-0.1h-2.4c0,0-0.2,0-0.3,0c0,0-0.1,0.1,0.1,0.2v3h-1V183.1z"/>
				<path class="st8" d="M25.9,178.6v-1.1h1v1.1H25.9z M25.9,182.9v-4.3h1v4.3H25.9z"/>
				<path class="st8" d="M28.5,182.9c-0.3,0.2-0.5,0.1-0.8-0.1c-0.2-0.2-0.9-0.7-0.9-0.7v-4.6h1v4.5c0.4,0.1,0.5,0.2,0.5,0.2
					c0,0,0.3,0.7,0.3,0.7h1.2l0,0H28.5z"/>
				<path class="st8" d="M30.8,182.8c-0.3,0-0.5-0.1-0.7-0.3c-0.2-0.2-0.3-0.4-0.3-0.7v-2.4c0-0.3,0.1-0.5,0.3-0.7s0.5-0.3,0.8-0.3
					h2.9v-1.1h1v5.3L30.8,182.8L30.8,182.8z M31,182.9h2.6c0.1-0.6,0.2-0.6,0.3-0.7c0,0,0.1-0.1-0.1-0.2v-2.1
					c0.1-0.1,0.1-0.2,0.1-0.2c0,0-0.1-0.1-0.3,0H31c-0.1-0.1-0.2,0-0.3,0c0,0,0,0.1,0,0.2v2.1c-0.1,0.1,0,0.2,0,0.2
					C30.9,182.2,30.9,182.3,31,182.9z"/>
				<path class="st8" d="M38.7,182.9c-0.3,0-0.5-0.1-0.7-0.3c-0.2-0.2-0.3-0.4-0.3-0.7v-4.4h2v4c0,0.1,0,0.2,0.1,0.2
					s0.1,0.1,0.2,0.1h3.4c0.1,0,0.2,0,0.2-0.1c0,0,0.1-0.1,0.1-0.2v-4h1v4.4c0,0.3-0.1,0.5-0.3,0.7c-0.2,0.2-0.5,0.3-0.8,0.3
					L38.7,182.9L38.7,182.9z"/>
				<path class="st8" d="M45.7,185v-6.4h3.9c0.3,0,0.5,0.1,0.8,0.3c0.2,0.2,0.3,0.4,0.3,0.7v2.4c0,0.3-0.1,0.5-0.3,0.7
					c-0.2,0.2-0.5,0.3-0.8,0.3h-4.8v2.1H45.7z M46.4,182.9h2.6c0.1-0.6,0.2-0.6,0.3-0.7c0,0,0.1-0.1,0.4-0.2v-2.1
					c-0.4-0.1-0.4-0.2-0.4-0.2c0,0-0.1-0.1-0.3,0h-2.6c-0.1-0.1-0.2,0-0.3,0c0,0-0.1,0.1,0.5,0.2v2.1c-0.6,0.1-0.6,0.2-0.5,0.2
					C46.2,182.2,46.3,182.3,46.4,182.9z"/>
				<path class="st8" d="M50.6,181.8v-4.3h1v4.3H50.6z M50.6,182.9v-1.1h1v1.1H50.6z"/>
			</g>
		</g>
	</g>
</g>
</svg>
