<?xml version="1.0" encoding="utf-8"?>
<!-- Generator: Adobe Illustrator 23.0.6, SVG Export Plug-In . SVG Version: 6.00 Build 0)  -->
<svg version="1.1" id="Calque_1" xmlns="http://www.w3.org/2000/svg" xmlns:xlink="http://www.w3.org/1999/xlink" x="0px" y="0px"
	 viewBox="0 0 30 30" style="enable-background:new 0 0 30 30;" xml:space="preserve">
<style type="text/css">
	.st0{fill:#9CD3D1;}
	.st1{fill:#FFFFFF;}
</style>
<path class="st0" d="M28.1,24.5c0,2.5-1.9,4.5-4.3,4.5H6.2c-2.3,0-4.3-2-4.3-4.5v-19c0-2.5,1.9-4.5,4.3-4.5h17.6
	c2.3,0,4.3,2,4.3,4.5V24.5z"/>
<path class="st1" d="M11.9,15.5c0,0-0.7-1.6-0.2-3.4c0.5-1.8,1.8-2.2,2.3-2.1c0.5,0,1.1,0.2,1.4,0.8c0.3,0.6,0.5,1.3,0.1,2.6
	c-0.4,1.3-0.9,3.1-0.9,3.4c-0.1,0.4-0.2,1.1,0.5,1.8c0.7,0.8,1.8,0.7,2.4,0.5c0.5-0.2,1.1-0.5,1.7-1.3c0.6-0.8,1.2-2.3,1.4-3.9
	c0.2-1.5,0.2-3.1-0.4-4.2c-0.6-1.2-1.6-2.3-3.9-2.6c-2.3-0.3-4.1,0.6-5.3,1.8c-1.1,1.2-1.6,2.7-1.7,3.4c-0.1,0.7-0.1,1.3,0,2
	C9.2,15,9.6,15.7,9.9,16c0.3,0.3,0.3,0.4,0.2,0.8c-0.1,0.4-0.2,0.9-0.3,1.1c0,0.2-0.3,0.5-0.7,0.3c-0.4-0.2-1.3-0.7-1.9-1.8
	c-0.6-1.2-0.7-2.5-0.7-3.6c0.1-1.1,0.4-2.4,1.1-3.7c0.7-1.2,2-2.7,3.5-3.4c1.5-0.7,2.6-1,4.4-1c1.8,0,3.1,0.5,4.1,1.1
	c1,0.6,1.9,1.4,2.7,2.6c0.8,1.2,1.1,2.6,1.2,3.6c0,1-0.1,2.7-0.5,4c-0.4,1.3-0.9,2.5-1.9,3.6c-1,1.1-2.2,1.7-3.2,1.8
	c-1,0.2-3.1,0.4-4.3-1.5c0,0-0.7,2.8-0.8,3.5c-0.2,0.6-0.3,1.1-0.8,2c-0.5,0.9-1.3,2.2-1.5,2.5c-0.2,0.3-0.3,0.2-0.4-0.1
	c0-0.2-0.2-1.9-0.2-3c0-1.1,0.2-1.7,0.2-2.1C10.4,22.4,11.9,15.5,11.9,15.5z"/>
</svg>
