<?xml version="1.0" encoding="UTF-8"?>
<svg xmlns="http://www.w3.org/2000/svg" xmlns:xlink="http://www.w3.org/1999/xlink" width="100pt" height="100pt" viewBox="0 0 100 100" version="1.1">
<g id="surface11159629">
<path style=" stroke:none;fill-rule:nonzero;fill:rgb(94.509804%,75.686275%,98.039216%);fill-opacity:1;" d="M 25 30 L 28.644531 77.382812 C 28.84375 79.988281 31.015625 82 33.628906 82 L 66.371094 82 C 68.984375 82 71.15625 79.988281 71.355469 77.382812 L 75 30 "/>
<path style=" stroke:none;fill-rule:nonzero;fill:rgb(94.509804%,75.686275%,98.039216%);fill-opacity:1;" d="M 65 38 L 65 73 C 65 74.648438 63.648438 76 62 76 C 60.351562 76 59 74.648438 59 73 L 59 38 C 59 36.351562 60.351562 35 62 35 C 63.648438 35 65 36.351562 65 38 Z M 53 38 L 53 73 C 53 74.648438 51.648438 76 50 76 C 48.351562 76 47 74.648438 47 73 L 47 38 C 47 36.351562 48.351562 35 50 35 C 51.648438 35 53 36.351562 53 38 Z M 41 38 L 41 73 C 41 74.648438 39.648438 76 38 76 C 36.351562 76 35 74.648438 35 73 L 35 38 C 35 36.351562 36.351562 35 38 35 C 39.648438 35 41 36.351562 41 38 Z M 77 24 L 73 24 L 71.164062 20.941406 C 70.441406 19.738281 69.140625 19 67.734375 19 L 32.265625 19 C 30.859375 19 29.558594 19.738281 28.835938 20.941406 L 27 24 L 23 24 C 21.34375 24 20 25.34375 20 27 C 20 28.65625 21.34375 30 23 30 L 77 30 C 78.65625 30 80 28.65625 80 27 C 80 25.34375 78.65625 24 77 24 Z M 77 24 "/>
<path style=" stroke:none;fill-rule:nonzero;fill:rgb(12.156863%,12.941176%,16.862745%);fill-opacity:1;" d="M 66.371094 83 L 33.628906 83 C 30.515625 83 27.886719 80.566406 27.648438 77.460938 L 24.003906 30.078125 L 25.996094 29.921875 L 29.640625 77.308594 C 29.800781 79.378906 31.554688 81 33.628906 81 L 66.371094 81 C 68.445312 81 70.199219 79.378906 70.359375 77.308594 L 74.003906 29.921875 L 75.996094 30.078125 L 72.351562 77.460938 C 72.113281 80.566406 69.484375 83 66.371094 83 Z M 56 20 C 55.449219 20 55 19.554688 55 19 L 55 16 C 55 15.449219 54.550781 15 54 15 L 46 15 C 45.449219 15 45 15.449219 45 16 L 45 19 C 45 19.554688 44.550781 20 44 20 C 43.449219 20 43 19.554688 43 19 L 43 16 C 43 14.347656 44.347656 13 46 13 L 54 13 C 55.652344 13 57 14.347656 57 16 L 57 19 C 57 19.554688 56.550781 20 56 20 Z M 56 20 "/>
<path style=" stroke:none;fill-rule:nonzero;fill:rgb(12.156863%,12.941176%,16.862745%);fill-opacity:1;" d="M 77 31 L 23 31 C 20.792969 31 19 29.207031 19 27 C 19 24.792969 20.792969 23 23 23 L 26.433594 23 L 27.976562 20.429688 C 28.875 18.929688 30.519531 18 32.265625 18 L 67.734375 18 C 69.484375 18 71.125 18.929688 72.023438 20.429688 L 73.566406 23 L 77 23 C 79.207031 23 81 24.792969 81 27 C 81 29.207031 79.207031 31 77 31 Z M 23 25 C 21.898438 25 21 25.898438 21 27 C 21 28.101562 21.898438 29 23 29 L 77 29 C 78.101562 29 79 28.101562 79 27 C 79 25.898438 78.101562 25 77 25 L 73 25 C 72.648438 25 72.324219 24.816406 72.144531 24.515625 L 70.308594 21.457031 C 69.769531 20.558594 68.78125 20 67.734375 20 L 32.265625 20 C 31.21875 20 30.230469 20.558594 29.691406 21.457031 L 27.859375 24.515625 C 27.675781 24.816406 27.351562 25 27 25 Z M 23 25 "/>
<path style=" stroke:none;fill-rule:nonzero;fill:rgb(12.156863%,12.941176%,16.862745%);fill-opacity:1;" d="M 61.5 25 L 25.5 25 C 25.222656 25 25 24.777344 25 24.5 C 25 24.222656 25.222656 24 25.5 24 L 61.5 24 C 61.777344 24 62 24.222656 62 24.5 C 62 24.777344 61.777344 25 61.5 25 Z M 73.5 25 L 68.5 25 C 68.222656 25 68 24.777344 68 24.5 C 68 24.222656 68.222656 24 68.5 24 L 73.5 24 C 73.777344 24 74 24.222656 74 24.5 C 74 24.777344 73.777344 25 73.5 25 Z M 66.5 25 L 64.5 25 C 64.222656 25 64 24.777344 64 24.5 C 64 24.222656 64.222656 24 64.5 24 L 66.5 24 C 66.777344 24 67 24.222656 67 24.5 C 67 24.777344 66.777344 25 66.5 25 Z M 50 76 C 48.347656 76 47 74.652344 47 73 L 47 38 C 47 36.347656 48.347656 35 50 35 C 51.652344 35 53 36.347656 53 38 L 53 63.5 C 53 63.777344 52.777344 64 52.5 64 C 52.222656 64 52 63.777344 52 63.5 L 52 38 C 52 36.898438 51.101562 36 50 36 C 48.898438 36 48 36.898438 48 38 L 48 73 C 48 74.101562 48.898438 75 50 75 C 51.101562 75 52 74.101562 52 73 L 52 69.5 C 52 69.222656 52.222656 69 52.5 69 C 52.777344 69 53 69.222656 53 69.5 L 53 73 C 53 74.652344 51.652344 76 50 76 Z M 62 76 C 60.347656 76 59 74.652344 59 73 L 59 47.5 C 59 47.222656 59.222656 47 59.5 47 C 59.777344 47 60 47.222656 60 47.5 L 60 73 C 60 74.101562 60.898438 75 62 75 C 63.101562 75 64 74.101562 64 73 L 64 38 C 64 36.898438 63.101562 36 62 36 C 60.898438 36 60 36.898438 60 38 L 60 39.5 C 60 39.777344 59.777344 40 59.5 40 C 59.222656 40 59 39.777344 59 39.5 L 59 38 C 59 36.347656 60.347656 35 62 35 C 63.652344 35 65 36.347656 65 38 L 65 73 C 65 74.652344 63.652344 76 62 76 Z M 62 76 "/>
<path style=" stroke:none;fill-rule:nonzero;fill:rgb(12.156863%,12.941176%,16.862745%);fill-opacity:1;" d="M 59.5 45 C 59.222656 45 59 44.777344 59 44.5 L 59 42.5 C 59 42.222656 59.222656 42 59.5 42 C 59.777344 42 60 42.222656 60 42.5 L 60 44.5 C 60 44.777344 59.777344 45 59.5 45 Z M 38 76 C 36.347656 76 35 74.652344 35 73 L 35 38 C 35 36.347656 36.347656 35 38 35 C 39.652344 35 41 36.347656 41 38 L 41 73 C 41 74.652344 39.652344 76 38 76 Z M 38 36 C 36.898438 36 36 36.898438 36 38 L 36 73 C 36 74.101562 36.898438 75 38 75 C 39.101562 75 40 74.101562 40 73 L 40 38 C 40 36.898438 39.101562 36 38 36 Z M 38 36 "/>
</g>
</svg>
